<?xml version="1.0" encoding="utf-8"?>
<!-- Generator: Adobe Illustrator 23.0.0, SVG Export Plug-In . SVG Version: 6.00 Build 0)  -->
<svg version="1.1" id="Слой_1" xmlns="http://www.w3.org/2000/svg" xmlns:xlink="http://www.w3.org/1999/xlink" x="0px" y="0px"
	 viewBox="0 0 203.1 136.2" style="enable-background:new 0 0 203.1 136.2;" xml:space="preserve">
<style type="text/css">
	.st0{fill-rule:evenodd;clip-rule:evenodd;fill:#E8E8E8;}
	.st1{fill-rule:evenodd;clip-rule:evenodd;fill:#F5F5F5;}
</style>
<path class="st0" d="M201.8,54l-0.5-0.6l-0.4-0.7l-0.2-0.5l-0.1-0.5l0.2-0.6l0.2-0.2l0.4-0.3l0.2-0.2l0.1-0.3l-0.2-0.2l-1.1-0.3
	h-0.2l-0.3,0.1l-0.7,0.7l-0.3,0.2l-0.3,0.1l-0.3,0.1l-0.3,0l-0.2-0.1l-0.6-0.6l-0.4-0.2l-0.4-0.1l-0.3-0.2l-0.3-0.6l-0.2-0.7
	l-0.1-0.4l-0.1-0.2l-0.7-0.1l-0.2-0.1l-0.4-0.3l-0.4,0.1l-0.4,0.2l-0.4,0.1l-0.4-0.1l-0.3-0.2l-0.3-0.3l-0.6-1.6l-0.3-0.3l-0.4,0.2
	l-0.2,0.2l-0.3,0.5l-0.2,0.2l-0.2,0.1l-1,0.1l-0.3-0.3l-0.3-0.4l-0.4-0.3l-1.2-0.3l-0.3-0.3l-0.5-1l0-0.1v0l0,0l-0.3,0.1l-0.1,0.1
	l-0.1,0l0,0l-0.6,0.3l-1.1-0.5l-1.3-1.5h-1.3h-1.2h-1.6l-1.3-1.3c0,0-1.1-0.2-1.4,0c-0.2,0.1-0.5-0.1-0.8-0.2l0-0.1l-0.4-0.6
	l-0.4-0.4l-0.1-0.1l0-0.2l0-0.2l0.1-0.4l0-0.7l-0.3-0.4l-1-0.5l-0.2-0.5l-0.2-0.6l-0.2-0.4l-0.2-0.1l-1.1,0.2l-0.3,0.1l-0.7,0.7
	l-0.3,0.3l-1.6,0.5l-0.8-0.1l-0.7,0.1l-0.7,0.3l-1.8,1.1l0,0v0.1l-0.4,0.4h-1.7c0,0-0.7-1.3-1-1.4c-0.4-0.1-0.9-1-0.9-1
	s-1,0.1-1.4,0c-0.2-0.1-0.3-0.2-0.4-0.4v-0.1l-0.1,0c-0.1-0.2-0.2-0.4-0.2-0.4l-0.3-0.2l-1.9-0.2l-1,0.1l-0.2,0.1l-0.2,0.1l-0.2,0.3
	l-0.1,0.1l-0.1,0h-0.2l-0.1,0l-0.2,0.2l-0.1,0.2l-0.2,0.2l-0.3,0.1l-0.2,0l-0.2-0.1l-0.2-0.1l-0.2-0.2l-0.2-0.3l-0.1-0.3l0-0.3
	l-0.1-0.4l-0.2-0.3l-0.2-0.2l-0.2-0.1l-0.2,0l-0.4-0.2l-0.2-0.4l-0.5-2.1l0-0.2l0.2-0.2l0.9-0.4l-0.3-0.3l0-0.4l0-0.4l-0.1-0.5
	l-0.1-0.2l-0.1-0.1l-0.3-0.2l-0.2-0.2l0-0.2l0-0.2l0-0.3l-0.1-0.2l-0.2-0.3l-0.1-0.2l0-0.3l0-0.2l0-0.2l-0.1-0.2l-0.1-0.1l-0.3-0.1
	l-0.1-0.1l0-0.2v-0.5l0-0.2l0.6-0.1l0.2-0.2l0.1-0.3l-0.1-0.2l-0.2-0.1l-0.2-0.1l-0.4,0l-0.8,0.2l-0.4,0l-0.3-0.3l-0.2-0.6l-0.3-1.6
	l-0.1-0.3l-0.1-0.2l-0.2-0.1l-0.2,0l-0.2,0.1l-0.2,0l-0.2-0.1l-0.2-0.1l-0.2,0l-0.5,0.3l-0.9,0.4l-0.8,0.2l-0.8-0.1l-0.2-0.1
	l-0.2-0.2l-0.1-0.3l-0.1-0.3l-0.1-0.2l-0.2-0.2l-0.3,0l-0.7,0.1l-0.4-0.1l-0.8-0.3l-0.4-0.1l-0.4,0.1l-0.4,0.3l-0.2,0.1l-0.3-0.1
	l-0.8-0.3l0.6-0.4l0.4-0.5l0.3-0.6l-0.1-0.6l-0.2,0.1h-0.2l-0.2,0l-0.2-0.1l-0.2-0.1l-0.2-0.2l-0.1-0.2l0-0.2l0.1-0.1l0.2-0.1
	l0.1-0.2l0-0.2l0-0.2l0-0.2l0-0.2l0-0.2l0.1-0.3l0-0.2l0-0.4L136,16l-0.2-0.3l-0.5-0.5l-0.1-0.1l0-0.2l-0.1-0.4l0-0.1l-0.2-0.1
	l-0.4-0.1l-0.1-0.2l0.1-0.4l0.4-0.3l1.9-0.4l0.7,0l0.2-0.1l0.4-0.5l0-0.7l-0.3-0.7l-0.4-0.4l-0.2-0.2l-0.4-0.4l-0.2-0.1h-0.1
	l-0.2,0.1l-0.1-0.1v0l0-0.3l0-0.1L136,9.4l-0.2-0.1l-0.1-0.1l-0.4-0.5l-0.2-0.2h-0.6V8.4l0.1-0.3l0-0.3l-0.2-0.4l-0.1-0.3l-0.1-0.3
	l0-0.6l0-0.3V5.7l0.2-0.4V5.1l0-0.2l-0.1-0.2l-0.1-0.2l-0.2-0.3l-0.2-0.2L133,3.6l-0.2-0.2l-0.3-0.6l-0.2-0.3l-0.5-0.3L131.7,2
	l-0.2-0.3l-0.1-0.3l-0.1-0.2l-0.3-0.1l-0.5,0l-0.5,0.1l-1,0.5l-0.8,0.8l-0.2,0l-0.2-0.3l0.1-0.7l-0.2-0.3l-0.2,0.1l-0.2,0.1
	l-0.2,0.1l-0.2,0l-0.2-0.1l-0.3-0.2l-0.2,0h-0.7L124.6,1l-0.2,0l-0.2,0.1L124,1.5l-0.1,0.1l-0.2,0.1l-0.1,0.1l-0.1,0.3l-0.1,0.1
	l-0.1,0l-0.1-0.1l-0.1,0l-0.2,0.1l-1.1,1l-0.2,0.1l-0.2,0L120.9,3l-0.2-0.1h-0.3l-0.7,0.2h-0.3l-2.2-1.2l-0.5,0.2l-1-0.4l-0.4,0.1
	l-0.2,0.6l0.1,0.2l0.2,0.4l0,0.2l-0.1,0.2l-0.1,0.1l-0.1,0.1L115,3.7L114.9,4l-0.1,1.1l-0.3,0.7L114,6.2l-1.5,0.7l-0.2,0l-0.7-0.2
	l-0.4,0l-0.6,0.3l-0.2,0L110.2,7l0-0.3V6.4l-0.1-0.3l-0.3-0.3l-0.4-0.1l-0.7,0.1l-1.3,0.1l-1.9-0.4h-1l-0.9,0.4l-0.2,0.3l-0.2,0.4
	l-0.2,0.3L102.8,7l-0.3-0.1L102,6.4l-0.3-0.2l-0.4-0.1l-1.5,0.1l-0.3,0.1l-0.2,0.2l0.1,0.3L99.4,7l0,0.1l0,0.1l0,0.1l0.3,0l0.1,0.3
	l-0.1,0.2l-0.3,0l-0.1-0.1l-0.1,0l-0.1,0L99,7.8L99,7.9l0,0.1v0.1l-0.1,0.2l-0.1,0.1l-0.1,0.1l-0.2,0.1l-0.3,0.1v0.1l0,0.1L98.2,9
	v0.1L98,9.3l-0.1,0.1l-0.1,0l-0.3,0l-0.1,0l0,0.1v0.2l0,0.2l-0.2,0.1l-0.1,0.1L97,10.3L97,10.3l0,0.1l-0.2,0.3l-0.1,0.1l0,0.1V11
	l0.1,0.2l0,0.3l-0.2,0.2l-0.3,0.2L96.1,12l0.2,0.1l0.1,0v0.1l-0.1,0.1l0,0.2l0,0.2L96.1,13L96,13l-0.4,0l-0.1,0l0.1,0.2l-0.1,0.4
	l0.1,0.3L95.5,14l-0.1,0.1l-0.1,0l0,0.1l0,0.2l-0.1,0.1l-0.3,0.3v0.1l0.2,0.2l0.1,0.1v0.1l-0.1,0l0,0l0,0l-0.1,0v0.1l0.1,0.2
	l0.4,0.1l0.2,0.1l-0.1,0.2l-0.1,0.1l-0.1,0.1l0.1,0.1l0.1,0.1l0,0.1l-0.1,0.1l0.1,0.2l0.1,0.1l0.1,0.1l0.1,0.1v0.1l-0.2,0l-0.1,0
	l-0.1,0.1l0,0.2l0,0.2l0.1,0h0.1l0.1,0.1l0.1,0.1l0.1,0.5l0.1,0.1l0.1,0.1l0,0.1L96.2,19l0.1,0.5L96,19.8l-0.3,0.3l0,0.3l-0.2,0.4
	l0,0l0,0.4l-0.1,0.1l-0.1,0l-0.1-0.2L95,21l-0.1-0.1l-0.2,0l-0.2,0l-0.2-0.1l-0.3-0.4l-0.2-0.2l-0.2,0h-0.3l-0.2-0.1l-0.2-0.1
	l-0.3-0.4l-0.1-0.2l0,0l0.1-0.4l0-0.1v-0.2l0-0.1l0-0.1l-0.1-0.1l-0.1-0.1L92,18l-0.2-0.2l-0.4-0.6L91.1,17l-0.3-0.1l-1.5,0L89,17
	l-0.7,0.3h-0.1L88,17.3l-0.1,0l-0.1,0.1l-0.2,0.3l-0.1,0.1l-0.2,0.1l-1-0.2l-0.1-0.2L86,17.2l-0.2-0.3l-0.2-0.1l-0.2,0l-0.3,0
	l-0.2,0.1l-0.2,0.2l-0.1,0.2l-0.2,0.2l-0.3,0.1l-0.3,0l-0.2,0.1l-0.1,0.2l-0.2,0.4l-0.2,0.3h-0.2l-0.5-0.2l-0.3,0.1l-0.4,0.4
	L81.7,19l-0.2-0.1l-0.1-0.3l-0.1-0.4l-0.1-0.4l-0.2-0.3l-0.2-0.1l-0.1-0.2l0.1-0.5l0-0.5L80.5,16l-0.4-0.6l-0.2-0.6l-0.1-0.2
	l-0.3-0.2L79,14.2l-0.2,0l-0.2,0.1l-0.2,0.2l-0.3,0.6l-0.2,0.2l-0.3,0.1h-0.7l-0.3,0.1l-0.3,0.2L75.9,16l-0.3,0.4l-0.2,0.5l0,0.3
	l0,0.7l-0.1,0.3l-0.2,0.2L75,18.2l-0.1-0.3l-0.1-0.2l-0.1,0l-0.2,0.1l-0.2,0.1l-0.2-0.1l-0.1-0.2L74,17.2l-0.2-1l0-0.4l-0.1-0.2
	l-0.3-0.1l-1-0.2h-0.3l-0.3,0.1l-0.6,0.4L71,16.1l-0.1,0.1l-0.1-0.1L70.7,16l-0.1-0.5l-0.1-0.2l-0.1-0.2L70,14.9l-0.1-0.1l-0.1-0.2
	l0-0.2v-0.2l0-0.2l-0.2-0.2l-0.2,0L69.1,14l-0.2,0.2l-0.2,0.3l-0.4,0.7L68,15.5l-0.2,0.1h-1.1l-0.2-0.1l-0.2-0.1l-0.7-0.7l-0.2-0.1
	l-0.2,0l-0.2,0.2l-0.1,0.3l-0.1,0.4v0.2l0,0.2l0,0.2l-0.1,0.2l-0.1,0.1l-0.5,0.7L64,17.3l-0.2,0l-0.2-0.1l-0.2-0.1l-0.2-0.2
	l-0.1-0.1l0.4-0.9l0.1-0.4L63.5,15l-0.2-0.1l-0.6,0l-1.2-0.5l-0.4,0l-0.2,0.1l-0.3,0.3L60.4,15l-0.2,0l-0.7-0.1L59.1,15l-0.2,0
	l-0.2-0.1l0.1-0.3l0.2-0.4l0-0.3l-0.3-0.1l-0.3,0l-0.2,0L58,13.7l-0.1-0.4v-0.5l0-0.4l-0.1-0.3L57.6,12l-0.5-0.1l-1,0L55,12.3
	l-0.7-0.1l-2.1-0.9l-2.4-0.1l-0.2-0.1l-0.1-0.2l0-0.2l0-0.2v-0.1l-0.1-0.1l-2.6-0.1l-0.3-0.2l-0.7-0.6l-0.3-0.1l-0.8,0l-2.4-0.4
	l-0.9,0.2l-3.7-0.1l-1.9-0.5l-0.5,0l-0.5,0.2l-1,0.5l-3.1,0.5l-0.2,0l-0.7-0.2l-2.8,0.2l-0.2,0.1l-0.2,0.3l-0.4,0.6l-0.2,0.3
	l-0.3,1.2l-0.3,0.4l-1.3,0.9l-1.7,1.5L22,15.2l-0.3-0.3l-0.3-0.4l-0.4-0.2l-0.3,0L19.8,14h-0.3l-1.1,0.3l-0.1,0.1l-0.1,0.1l-0.1,0.2
	l0,0.1l0.1,0.1l0.3,0.9l0,0.2l-0.1,0.3l-0.1,0.1l-0.1-0.1l0,0.1l0.1,0.3l0.3,0.1l0.2,0.1L19,17l-0.2,0.4l0,0.1l0.4,0.7l0.1,0.2
	l-0.1,0.1l-0.1,0.1l0,0.2l0.1,0.2L19,19l-0.2,0.2l-0.2,0.3l-0.1,0.2l0.1,0.4l0.2,0.1H19l0.2,0.1l0.6,1.4l0.2,0.3l0.6,0.4l0.5,0.5
	l0.1,0.2l-0.2,0.1l0,0.2l0.2,0.3l0.3,0.5l0.1,0.2l0.1,0.7v0.1l0,0.1l0.1,0.1l0.1,0.1l0.1,0.1l0.1,0.2l0,0.1l0,0.2l0.1,0.2l0.2,0.3
	l0.8,0.7l0.9,0.5l0.1,0.2l-0.1,0.3l-0.3,0.1h-0.4l-0.2,0.1l-0.3-0.2l-0.3,0l-0.3,0.2l-0.1,0.3l0,0.3l0.2,0.2l0.3,0.1l0.3,0v0.1
	L22.8,30l0.2,0.3l0.3,0.2l0.3,0.1l-0.1,0.4l0.1,0.4l0.3,0.7l-0.2,0.4l0.1,0.8l0.1,0.2l0.1,0.1l0,0l-0.1,0.2L23.5,34l-0.7,0.4l0,0.2
	l0,0.3l0,0.2l-0.1,0.2l-0.2,0.6l-0.6,0.3l-2,0l0,0l0,0l-0.6,0.4c0,0-2,0.4-2.5,1c-0.5,0.6-1.1,2.8-1.1,2.8l-1.8,2l-0.3,0.5l-0.4,0.3
	l-0.4,0.5l-1.2,1.8L11,45.9l-0.1,0.1l-0.1,0.3l-0.1,0.1l-0.1,0.1l-0.2,0.1l-0.1,0.1l-0.1,0.1l-0.7,1.2l-0.2,0.2l-0.1,0.1l-0.2,0.1
	L9,48.6l-0.1,0.2l-0.2,0.5l-0.8,1.1l-0.3,0.7l0.2,0.6l0.1,0.3l0.1,0.7l0,0.2L8,53l0.1,0.2l0.2,0.3l0.1,0.1l0,0.3l0.2,1.6l0,0.3
	l-0.2,0.5l-0.1,0.6l-0.2,0.4L8,57.4l0.1,0.1l0.1,0l0.2-0.2l0.2,0.1h0l0,0l0.4,0.3L9.1,58l0.2,0.2l0.5,0.3l0.1,0.2v0.1l-0.1,0.3
	l0,0.2l0,0.2l0.2,0.3l0,0.1L10,60.1l-0.2-0.1l-0.3-0.2l-0.2-0.1l-0.1,0L9,59.4l-0.1-0.1l-0.1,0l-0.3,0.1l-0.4,0l-0.2,0l-0.2,0
	l-0.3-0.2l-0.4-0.5l-0.2-0.1l-0.2,0.2l-0.1,0.3l-0.1,0.4l-0.1,0.4v0.3L6,60.3l-0.4,0.1l-0.2,0.2l-0.2,0.7L5,61.6l0,0.1v0.2L5,62
	l-0.1,0.2l-0.3,0.2l-0.1,0.2l-0.1,0.2v0.1l0,0.1l0,0.6l0,0.1l-0.1,0.2L4.3,64l-0.1,0.1l-0.1,0.1l0,0.2l0,0.4L4,65.1l-0.1,0.3
	l-0.2,0.2l-0.1,0.1l-0.3,0.1L3.1,66L3,66.1l-0.1,0.3l-0.1,0.1L2.1,67l-0.2,0.3l0,0.3L2,68.3l0,0.3l-0.1,0.3l0,1.2l0.3,0h0L2.3,70
	l0.4-0.1L3,69.9l0.4,0.2l-0.2,0.5v0.3l0.3,0l0.1,0L3.7,71v0.2l0,0.2l0,0.2l0.1,0.3l0.5,0.8l0.1,0.1l0.1,0l0.1,0l0.1-0.1l0,0h0.1
	L5,72.8l0.2,0l0.2,0l0.2-0.1h0l0,0l0,0l0.8,1.1l0.1,0.3l0.2,0.5L7,75.1l0.1,0.1h0l0.2-0.1h0.8L8.3,75l0.2-0.1l0.2-0.1L8.8,75l0,0.1
	l0.4,0.2l0.3,0.3l0.2,0.2L9.9,76l0.1,0.3l0,0.2l-0.1,0.2l0,0.3l-0.2,0.2l0.1,0.2l0.4,0.3l0.2-0.1l0.2-0.1l0.1-0.2l-0.1-0.3l0.1-0.2
	l0.2,0l0.2,0.1l0.2,0.1l0.2,0.1l0.2,0.1l0.2,0l0.5-0.4l0.2-0.3l0.2-0.8l0.2-0.3l0.2-0.1l0.3,0l0.8,0.3l0.2,0.1l0.5,0.5l0.5,0.5
	l0.2,0.3l0.1,0l0.1,0h0.1l0.1,0h0.1l0.7,0.4l0.2,0l0.1-0.1l0.1-0.1L17,77l0.1-0.1l0.1-0.1l0.1,0l0.4-0.1l0.2,0.1l0.7,0.1l0.5,0.2
	l0.3,0l0.8,0l0.2,0.1l0.6,0.5l0.1,0.3h0.2l1.1-0.5l0.3,0l0.2,0.1l0.6,0.2l0.2,0.1l0.4,0.4l0.2,0l0,0l0.7,0.3l0.2,0l0.8-0.4l0.5,0
	l0.4-0.4l0.3-0.1h0.2l0.6,0.2l0.6,0l0.2,0.1l0.5,0.3l0.3,0.2l0.2,0.2l0.1,0.3l0,0.2l0.1,0.2l0.2,0.2l0.4,0.2l0.9,0.3l0.2,0.1
	l0.1,0.2l0.4,0.7l0.3,0.4l0.2,0.1l1.3-0.2l0.7-0.3l0.5-0.4l1.1-1.8l0.5-0.3l5.5-0.6l0.7-0.3l0.6-0.1l0.3-0.2l0.2,0l0.5,0.1l0.7-0.2
	l1.1,0l0.5-0.2l0.1-0.2l0.2-0.6l0.1-0.2l0.3-0.3l0.1-0.2l0.2-0.4l0.2-0.5l0.1-0.5l0-0.4l0.1-0.5l0.1,0l0.2,0l0.2-0.1l0.4-0.2
	l0.2-0.1l0.5,0l0.2,0l1.4-0.3l0.3-0.2l0-0.1l0-0.2l0.1-0.2l0.4-0.2l0.1-0.2l0.1-0.1l0.2,0.1l0.2,0.2l0.1,0.2l0.1,0.2l0.2,0.1l0.2,0
	l0.1-0.1l0-0.2v-0.3l-0.1-0.3l-0.1-0.2l0-0.2l0.1-0.2h0.1l0.2,0.1h0.1l0.1-0.1l0-0.1l0-0.1l0.1,0l0.4,0.2l0.4,0.3l0.4,0.2l0.4-0.1
	l0.1-0.1l0.1,0l0.1,0l0.1,0l0.1,0l0.1,0l0-0.1l0-0.1l0-0.1v-0.1l0-0.1l0-0.1l0.1,0l0.1,0l0.2,0.1l1.2,0.4l0.4,0l0.4-0.2l0.7-0.8
	l0.4-0.2l0.2,0.1l0.3,0.3l0.2,0.1l0.2-0.1l0.7-0.6l0.3-0.3h0.5l0.1,0l0.3-0.2l0.2,0l0,0.4l0.2,0.1l1.4,0l0.4,0.2l0.7,0.5l0.2,0.1
	l0.3,0.5l0.1,0.1l0.2,0.4l0.4,0.2l1,0.1l0.2,0.1l0.2,0.2l0.1,0.3l-0.2,0.7l0.2,0.1l0.3,0l0.2,0l0.3-0.3l0.2,0l0.1,0.3l0,0.3l0.1,0.2
	l0.2,0.1l0.3-0.1l0.2-0.1l0.2-0.2l0.2-0.1l0.5-0.1l0.2,0l0.1,0.1l0,0.3L71,73.6l-0.1,0.2l-0.2,0.1L70.5,74l-0.1,0.2l0,0.2l0.1,0.1
	l0.2,0l0.2-0.2l0.1-0.3l0.1-0.2l0.3,0l0.2,0.1l0.1,0.2l0,0.3l-0.2,0.2l0.3,0.7l0.1,0.1l0.2,0.2l0.1,0l0-0.2v-0.3l0.1-0.3l0.2-0.6
	l0.3-0.1l0.4,0l1,0.4l0.8,0l0.4,0.1l0.3,0.2l0.1,0.1l0,0.1l0,0.1l0,0.1l0.2,0.4l0.1,0.4l0,0.1l0.1,0.1l0.2,0.2l0.3,0.5l0.4,0.4
	l0.4,0.3l0.3,0.1l0.4-0.1l0.5-0.6l0.3-0.2h0.2l0.2,0.1l0.1,0.1l0.1,0.2l0.1,0.3l0.1,0.6l0.1,0.2l0.2,0.1l0.4,0.1l0.1,0.1l0,0.2
	l-0.2,0.2l-0.2,0.2l-0.1,0.2l-0.1,0.3v0.2l0.1,0.1l0.4,0.1l0.1,0.1l0,0.2L80.6,81l-0.3,0.4L80.2,82l0,0.6l-0.1,0.6l-0.3,0.5L79.5,84
	l-0.1,0.4l0.1,0.7l0.1,0.2l0.2,0.5l0.1,0.2l0.2,0.2l0.1-0.1l0.1-0.2l0.2-0.1l0.2,0.1l0.2,0.4l0.3,0.2l0.1,0.2l0.1,0.2l0.1,0.2
	l0.2,0.1l0.2,0l0.2,0.1l0.1,0.2l0.1,0.3v0.2l0,0.2l0.2,0.3l0.2,0.1l0.2,0.1l0.2,0l0.2-0.1l0.2-0.2l0.2-0.2l0.1-0.3l0.1-0.3l0.2,0
	l0.2,0l0.2,0.1l0.2,0.2l0.2,0.3l0.1,0.4l0,0.4l-0.1,0.3l-0.3,0.1l0,0.4l0.1,0.9L84.2,91L84,91.2l-0.2,0.1l-0.3,0l0,0v0.1l0,0.1
	l0.3,0.6l0.1,0.1l0.1-0.1l0.1-0.2l0.1-0.2l0.2,0l0.2,0.1l0.1,0.2l0.1,0.2l0,0.3l-0.1,0.2l-0.1,0.2L84.5,93l-0.1,0.6l-0.1,0.2l0,0.2
	l0.1,0.2l0.1,0l0.3,0l0.1,0.1l0.2,0.2l0.1,0.1l0.2,0.1l0.4,0l0.2,0.1l0.2,0.2l0.3,0.4l0.2,0.2l0.3,0.1l0.3,0l0.3,0l0.3,0.3l0.1,0.1
	l0.1,0.3l0.1,0.1l0.1,0l0.1-0.1l0.1,0l0.1,0.1l0,0.1v0.4l0,0.2l0,0.1l0.1,0.2l0.1,0.1l0,0.3l-0.1,1l0,0.2L88.5,99l0,0.2v0.2l0,0.2
	l0.1,0.3l0,0.2l-0.1,0.3l-0.3,0l-0.2,0l0,0.4l0.2,0.2l0.5,0.2l0,0l0.1,0.2l0,0l0.1,0l0.1-0.1h0.1l0.1,0.1l0.1,0.1l0.1,0.3l-0.1,0.1
	l0.5,0.4l0.2,0.2l0.1-0.1l0.2,0l0.2,0l0.2,0.1l-0.3,0.5l-0.3,0.3l-0.5,0.1l-1.3-0.1l-0.2,0l-0.2,0.1l-0.4,0.4l-0.2,0l-0.2-0.3l0-0.1
	v-0.3l0-0.2l-0.1-0.1l-0.2-0.4l-0.6-0.6l-0.1-0.3v0.4l-0.1,0.2l-0.2,0.1h-0.3l-0.1,0.1l0.1,0.4l-0.1,0.3l-0.2,0.2l-0.2,0.1l-0.2,0
	l-0.2-0.1l-0.2-0.2l-0.2-0.3l-0.2-0.1l-0.2-0.1l-0.3-0.1l-0.2-0.1l-0.1-0.1l0-0.1l0-0.1l0.1-0.1l0.1-0.1l0-0.1l0-0.1l-0.1-0.1
	l-0.3,0l-0.2,0.1l-0.2,0.2l-0.5,0.7h-0.1l-0.2-0.3l-0.3-0.6l-0.2-0.1l-0.2,0.3l0,0.2l0.1,0.3v0.1l-0.1,0.2l-0.1,0l-0.1,0l-0.1,0
	l-0.4,0.4l-0.3,0.2l-0.2-0.2v-0.2l0.1-0.2l0.1-0.2l0.1-0.2l0-0.2l0-1.4l-0.1-0.3l-0.2-0.2h-0.2l-1,0.6l-0.6,0.2l-0.8,0.6l-0.2,0.3
	l-0.1,0.4l0.1,0.6l0.2,0.8l0,0.3l-0.1,0.3l-0.1,0.2v0.2l0.2,0.2l0.7,0.6l0.1,0.3l-0.1,0.4l-0.3,0.4l-0.4,0.4l-0.1,0.3l0,0.4l0.2,0.7
	l0,0.3l-0.3,0.1l-1.9,0.5l-0.2,0.1l-0.1,0.2v0.3l0.2,0.6l0,0.3l0,0.3l-0.1,0.2l-0.1,0.1l-0.2,0.1l-0.3,0.1l-0.1,0.1v0.1l0,0.1l0,0.2
	l0,0.2l-0.3,0.2l-0.7,0.1l-0.2,0.3l0.1,0.3l-0.1,0.1l-0.3,0.1l-0.2,0.1l-0.1,0.1l-0.3,0.4l-0.1,0.2l0.1,0.1l0.2,0.1l0.1,0.2l0.1,0.2
	l0,0.2l0,0.2l0.2,0.2l-0.3,0.1l-0.1,0.1l-0.1,0.1v0l0,0l0.1,0.5l-0.1,0.2l-0.2,0.1l-0.7,0l-0.8-0.2l-0.8-0.1l-0.6,0.4l-0.1,0.2
	l-0.1,0.2l0,0.1l0.2,0.2l0.3,0l0.3,0.2l0.2,0.3l-0.1,0.3l0.3,0.9l0.2,0.4l0.3,0.2l0.2,0.1l0.4,0.2l1,0.3l0.9,0.5l1.5,0.3l0.4-0.1
	l0.3,0l0.1-0.1l0.1-0.1l-0.3-0.1l-0.1-0.1l-0.1-0.1l0-0.1l0-0.1l0.3-0.2l0-0.2l0-0.2L76,120l0.2,0.1l0.3,0.2l0.3,0l0.1,0.1l0.2,0.2
	l0.2,0.1l0.3-0.1l0.1-0.1l0-0.3l0.1-0.1l0.1-0.1l0.1,0l0.3,0l0.2-0.1l0.6-0.5l0.5-0.1l0.2-0.1l0.2-0.2l0.1,0l0.3,0l0.1,0l0-0.1
	l0.1-0.1l0.2-0.1l0.2-0.1l0.2,0l0.2,0h0.2l0.1,0l0.1-0.1l0.1-0.1l0.1-0.1l0.1-0.1l0.1,0l0.1,0.1l0.1,0l0.9,0.1l1.6,0.6l0.5,0.5
	l0.1,0.1l0.2,0.2l0.2,0.5l0.1,0.6l-0.1,0.4l0.1,0.1l0,0.1l0,0.1l-0.1,0.1l0.2,0l0.2-0.1l0.2-0.1l0.2-0.2l0,0l0,0l0-0.1l0-0.2
	l0.1-0.4l0-0.1l0.1-0.2l0-0.1l0-0.1l0-0.7l0-0.3l-0.1-0.3l-0.2-0.2l0.2,0l0.1-0.2l0-0.3l-0.1-0.3l-0.2-0.2l-0.1,0.1l-0.1,0.3
	l-0.1,0.2L86,118l-0.1-0.1l-0.1,0l-0.1,0v0.1l-0.1,0.1l-0.1,0l0-0.1v-0.4l-0.2,0l0,0.2l0,0.2l0,0.1l-0.1,0l-0.1-0.1L85,118l-0.2-0.4
	v-0.1l0.2-0.1l0.1-0.1l0.1-0.2l0.1-0.2l0.1-0.1l0.2-0.1l0.4-0.6l0.1-0.2l-0.3,0.3l-0.2,0.1l-0.2,0l-0.2,0l-0.2-0.1l-0.3-0.1l0.1-0.7
	l0-0.8l0.1-0.6l0.4-0.3l-0.1-0.2l-0.1-0.1l0-0.1l0-0.2l0.1-0.2l0.2-0.3l0-0.1l0-0.1l-0.2-0.2l0-0.1l0-0.1l0.1-0.1l0.1,0l0.1,0.1
	l0.1,0.1l0.2,0.2l0,0l0,0l0.1,0.1l0.1,0.2l0,0.1l-0.1,0.1l-0.1,0.3l0.1,0.8l0,0.1l0.3,0.1l0.2,0.3l0.1,0.4l0,0.4l0.1-0.1l0.3-0.1
	l0.2-0.1l-0.1-0.1v0l0,0l0-0.1l0.2,0.1l0.2-0.1l0.2-0.2l0.2-0.1l0.1-0.1l-0.1-0.1l-0.2-0.2l-0.3-0.1L87,114l-0.1-0.2l0.1-0.3
	l0.2-0.2l0.3-0.1h0.3l0,0l0-0.1l0-0.1l0.1,0l0.1,0l0,0.1l0,0.1l0,0.1l0.2,0.2l0.1,0.1l0.1,0.2l0.1-0.4l-0.1-0.1l-0.1-0.2l-0.1-0.2
	l0-0.3l0.1-0.2l0.1,0l0,0.1l-0.1,0.2v0.1l0.1,0.1l0.1,0.2l0.1-0.4l0-0.4l0.1-0.3l0.3-0.1l0.3,0.1l0.5,0.4l0.1-0.1l0-0.1l0.1,0
	l0.1,0.1l0,0l0.1,0l0-0.1v-0.1l0-0.1l0-0.1l0-0.4l0.1-0.2l0.1-0.2l0.1-0.1l0.1,0l0.1,0.9l0,0.2l0.7-0.6l0.6-0.6l1.2-1.6l1.4-1.3
	l0.1-0.2l0.2-0.6l0.1-0.1l0.2-0.1l0.2-0.2l0.2-0.5l0.8-1.1l0.3-0.6l0.1-0.2v-0.2l-0.1-0.1l-0.3-0.2l-0.1-0.1l0.1-0.2l0.6,0l0.2-0.2
	l0.5-0.6l0-0.1l0.1-0.5l0-0.1l0-0.1l0,0l0.1,0l-0.1-0.1l-0.1-0.1h0l-0.1-0.3l-0.2-0.4l0-0.2l0.1-0.1l0.3-0.5l0.1-0.1h0.1l0.5,0.1
	l0.1,0l0.7-0.5l0.2-0.1l0.1,0.1l0.1,0l0.3-0.2l0.1-0.1l0.3,0l0.5-0.2l0.6-0.1l0.6-0.2h0.3l0.8,0.2l0.2,0.2l0.1-0.1l0.1,0.1l0.3,0
	l0.2,0.1l0.2-0.1l0.5-0.3l0.2-0.1l0.1-0.1l0.4-0.6l0.2-0.1l0-0.1l0.2-0.3l0.1-0.2l0-0.1l-0.3-0.3l-0.1-0.1l-0.1-0.1l0-0.2l0-0.1
	l-0.1-0.4l0.2,0.1l0.1,0.2l0.2,0.4l0.2,0.1l0.1,0.1l0.1,0l0,0l0-0.1l0.2-0.3l0.1-0.1l0.1-0.1l0.2-0.1l0.1-0.1l0.1-0.2L107,96
	l0.1-0.1l0.1,0.2l-0.5,0.8l-0.1,0.1v0.2l-0.2,0.4l-0.6,1l-0.1,0.3l0,0.2l0.1,0.1l0.1,0l0.2,0l0.1,0l0.2,0.2l0.1,0.1l0.3,0l0.1-0.2
	l0.1-0.2l0.2-0.1l0.7-0.1l1.1,0.4l0.5,0.1l0.5-0.1l0.1-0.1l0.3-0.2l0.1-0.1l0.1-0.2l0-0.1l-0.1-0.1l0-0.3l0.1-0.7l0-0.1l-0.4-0.6
	v-0.4l0.1-0.3l0.2-0.2l0.3-0.1l0.3-0.2L111,95l0.1-0.5l0-0.4l-0.2,0.1l-0.3,0.1l-0.2-0.1l-0.1-0.3l0.1-0.3l0.2-0.3l0.3-0.4l-0.4-0.1
	l-0.5,0.1l-0.3-0.2l0.1-0.7l0.1-0.1l0.2-0.3l0.1-0.3l-0.1-0.1l-0.1,0l-0.1-0.1l-0.1-0.1l-0.3-0.1l-0.1-0.1l0-0.9l-0.1-0.2l-0.5-0.1
	l-0.2-0.1l-0.2-0.2l-0.1-0.2l0-0.1l0.2-0.3l0-0.1l0.1,0.1l0,0.1l-0.1,0.3l0.1,0.2l0.7,0.3l0.2,0.2l0,0.1v0.2l0,0.3l0.1,0.3l0.1,0.1
	l0.1,0l0.2,0.1l0.2,0.4l0,0.4l-0.3,0.7l0.2,0.2l0.2,0l0.5-0.1l0.3,0l0.1,0.1l-0.1,0.2l-0.3,0.5l0,0.2l0.1,0.1l0.6,0.1l0.1,0.2l0,0.2
	l-0.1,0.3l-0.2,0.6l-0.3,0.5l-0.2,0.5l0,0.7l0.1,0.3l0.1,0.2l0.1,0.2l0,0.3l0.1,0.3l0.1,0.3l0.2,0.3l0.2,0.2l0.2,0.1l0.7,0.1
	l0.2,0.1l0.2,0.6l0.2,0.2l0.3-0.3l0.1,0l0.2-0.1l0.1,0l0.1-0.1l0.2-0.2l0.1,0l0.1,0l0.2,0.3l0.7,0.4l0.8-0.1l1.5-0.9l0.3,0.1
	l0.3-0.2l0.3-0.2l0.3-0.1l-0.1,0.3l-0.2,0.2l-0.2,0.1l-0.2,0.2l-0.2,0.1l-0.5,0.1l-0.2,0.1l-0.8,0.7l-0.3,0.4l0.2,0.3l-0.3,0.3
	l-0.4,0.2l-0.5,0l-0.5-0.1l-0.6-0.4l-1.2-0.3h-0.2l-0.6,0.1l-0.9-0.2h-0.9l-0.2-0.1l-0.6-0.4l-0.4-0.1l-1.9,0.2l-0.2-0.1l-0.3-0.3
	l-0.4-0.3l0.2,0.4l1.3,1.3l0.2,0.1l0.1,0.1l0.3,0.7l0-0.5l0-0.2l0-0.1l0.1-0.1l0.2-0.2l0.2-0.1l0.3,0l0.3,0.1l1.5,0.6l0.5,0.1l0.4,0
	l0.2,0.1l0.5,0.7l0.1,0.2L112,103h-0.2l-0.1,0l-0.6,0.5l-0.1,0.1l-0.8,0.2l-0.6-0.1l-0.2,0l-0.2,0.1L109,104l-0.1,0.2l0.1,0.3
	l0.2,0.2l0.2,0.1l0.2,0.1l0.7,0l0.1-0.1l0-0.2l0-0.2l0.1-0.2l0.9,0.7l0.6,0.3l0.3-0.1l0.3,0.3l0.4,0.6l0.1,0.1l0.2,0l0.5,0.2
	l0.3,0.1l0.3,0l0.3-0.2l0,0.2l-0.1,0.1l-0.2,0.2l0.1,0.1l0,0.2l0,0.1l0,0.1l0,0.2l0,0l0.1,0l0.1,0l0.2,0.2l2.2,0.6l0.4-0.1l0.1-0.1
	l0.2-0.2l0.1-0.1l0.1,0l1.4-0.3l0.4-0.2l0.2,0l0.3,0l0.6,0.2l0.1,0l0.3,0l0.1,0l0.1,0.1l0.1,0h0.2l1.2-0.2l0.2-0.2l-0.1-0.5l0.7,0.3
	l0.2,0.2l0.1,0h0.1l0.1-0.1l0.1,0l0.3-0.2l0.2-0.4l0.2-0.4l0.2-0.3l-0.1,1.1l0,0.2l-0.1,0.2l0.9-0.1l0.3,0.1l0,0.2l-0.1,0.2
	l-0.2,0.2l0.1,0h0.1l0.1,0l0.1,0.1l0.2-0.3l0.3,0.1l0.3,0.3l0.3,0.5l0.1,0.1h0.7l0.2,0.1h0.1l-0.2-0.3l0.1-0.2l0.3-0.1l0.3,0v-0.1
	l-0.3-0.2l0-0.2l0.2-0.2l0.2-0.2l0.3-0.1l0.2,0.2l0.3,0.6l0.1,0.3l-0.1,0.2l-0.1,0.2l0,0.2l0.1,0.5l0,0.1l-0.1,0.1l-0.1,0.2l0,0.1
	l0.1,0.1l0,0.1l-0.1,0.2l-0.2,0.3l0.1,0.1l0.1,0l0.1-0.1l0.1-0.1l0.3,0l0.6,0.2l0.2,0.1l0.2,0.2l-0.2,0.1l-0.4,0.1l-0.2,0.1
	l-0.2-0.1l0,0.3l0,0.4l0,0.2l-0.2,0l-0.1,0l-0.1-0.1l0-0.1l-0.1-0.1l-0.1-0.1l-0.1,0l-0.1,0l-0.1,0.1l-0.2,0.2l-0.3,0.3l-0.3,0.1
	l-0.1,0l-0.1,0l-0.2-0.2l-0.1,0l-0.2,0.1l-0.5,0.3l-0.2,0.1l-0.3,0.4l-0.1,0.1l-0.4,0.2l-0.8,0.5l-0.4,0l-0.4-0.2l-0.2-0.2l-0.1-0.1
	l-0.1,0.1l0,0.2l0.1,0.1l0.1,0.1l0.1,0.1l-0.1,0.2l-0.1,0.1l-2.5,1.2l-0.8,0.5l-0.3,0.3l-0.1,0.1l0,0.1l0,0.1l0,0.1l0,0.2l0,0.1
	l-0.2,0.1l-0.1,0l-0.2-0.1l-0.1,0l-0.2,0l-0.1,0.1l-0.1,0.1l-0.1,0.1l-0.2,0.1l-0.2,0.1l-0.2,0.1l-0.3,0l-0.2,0.1l-1.3,1l-0.3,0.4
	l-0.2,0.4l0,0.2l0.3,0.9l0.2,0l0.4,0.2l0.2,0.1h0.8l0.2-0.1l0.4-0.4l0.2-0.1l0.2,0l1.7,0.1l0.5,0.2l0.4,0.3l0.7,0.6l0.1,0.1l0.2,0.1
	l0.1,0.1l0.1,0.2l0.1,0.1l0.3,0.2l0.4,0.5l0.2,0.2l0.5,0.1l0.2,0.1l0.1,0.2l0.1,0.2l0.3-0.1l0.4-0.2l0.4-0.2l0.5-0.1l0.2,0.1
	l0.6,0.6l0.8,0.5l0.3,0.4l0.2,0.6l0,0.4l0,0.1l0.2,0.4l0,0.1l0,0.3l0.1,0.6v0.4l0,0.3l-0.1,0.3l-0.1,0.2l-0.4,0.2l-0.2,0.2l-0.1,0.3
	l-0.1,0.3l0,0.1l0,0.1l-0.1,0.1l0.1,0.2l0.1,0.2l0.1,0.4l0.1,0.3l0,0.2l0,0.3l-0.1,0.2l-0.1,0.2l-0.1,0.2l0,0.2l0.1,0.1l0.4,0.1
	l0.2,0.1l-0.2,0.1l-0.6,0l-0.2,0.1l-0.1,0.1l-0.1,0l-0.2,0l-0.1,0l-0.3,0.2l-0.1,0l-0.3,0.1l0,0l0,0.2l0.1,0.2l1.2,0.8l0.1,0.2
	l0.2,0.2l0.2,0l0.2-0.1l0.2,0l0.1,0.1l0.3,0.4l0.1,0.1l0.1,0.3l0.2,0.1l0.8,0.4l0.2,0.1l0.7,0l0.1,0l0.2-0.1h0.1l0.7,0.3l0.3,0
	l0.2,0l1.2-0.6l0.3,0l0.2-0.1l0.4-0.3l0.1-0.1l0.2-0.3l0.1-0.2l0.1-0.2l0.5-0.1l0.1-0.1l0.2-0.4l0-0.1v-0.1l0.1-0.1l0,0l0.1,0h0.2
	l0.3,0l0.1,0l0.1-0.2l0.4-1.1l0.4-0.7l0.1-0.1l0.1-0.1l0.4-0.6h0l0,0v0l0,0l0.3-0.3l0.4-0.2l0.9-0.2l0.4-0.2l0.8-0.5l0.4-0.2
	l0.8,0.1l0.2-0.1l0.2-0.1l0.4,0.1l0.2,0l0.1-0.1l0.1-0.1l0.1-0.1l0.1-0.1l0.1,0l0.4,0l0.2,0.1l0.1,0.2l0.1,0.2l0.1,0.2l0.5,0.1
	l0.3-0.5l0.2-0.7l0.3-0.5l0.2-0.1l0.5-0.1l0.2-0.2l0.3-0.5l0.2-0.1l0.3,0.2l0.1-0.1l0.1-0.1l0-0.1l0.5,0.4l-0.1-0.5l0-0.2l0.1-0.2
	l0.2-0.1l0.4,0l0.2-0.1v-0.1l-0.3-0.1l-0.1-0.1l0-0.2l0-0.1l0.1-0.1l0-0.2l0.1-0.1l0.6-0.5l0.4-0.2l0.5-0.1h0.5l0.5,0.1l0.8,0.3
	l0.7,0.5l0.1,0.1l0.3,0.4l0.1,0.2l0.1,0.3l0.2,0.1l0.8-0.1l0.9,0.1l0.2-0.2l0.2-0.4l0.3-0.3l0.3,0.2v-0.1l0.6,0.4l1,0.2l0.2-0.1
	l0-0.1l0.1-0.3l0-0.1l0.1-0.1l0.1,0l1,0l0.8-0.3l0.2-0.1l0-0.2l-0.1-0.2l-0.3-0.3l-0.1-0.3v-0.3l0.1-0.9l0.1-0.3l0.1-0.3l0.1-0.2
	l0.1,0l0.3,0l0.1-0.1l0.1-0.1l0-0.1l-0.1-0.1l0-0.1l0.1-0.3l0.2-0.2l0.2-0.1l0.3,0l0.3,0.2l0.1,0h0.1l0.4-0.1l0.1-0.2l-0.1-0.4
	l-0.2-0.5l-0.2-0.2l-0.2-0.1l-0.2,0l-0.2,0.2l-0.2,0.1l-0.2-0.2l-0.3-0.4l-0.2,0l-0.7,0.2l-0.2-0.1l-0.3-0.2l-0.2,0l-0.1,0l-0.1,0.1
	l-0.1,0.1h-0.1l0.1-0.3l-0.1-0.2l-0.2-0.1l-0.2,0.2l-0.1,0.1l-1.3,0l-0.2,0.1l-0.2,0.2l-0.3,0.2l0,0.1l-0.2,0.5l-0.3,0.4l-0.4,0.1
	l-0.4-0.2l-0.8-0.5l-0.2-0.2l-0.1-0.2l0.1-0.3l0.1-0.3l0-0.2l-0.3,0l-0.2,0.1l-0.2,0.2l-0.1,0.3l0,0.3l0,0.1l-0.2,0.2l-0.1,0.1
	l-0.2,0l-0.1,0.1l0,0.1l0,0.2l-0.3,0.3l-0.2,0.2l-2,0.5l-0.4,0l-1.6-1.2l-3.2-4.7l-1-1.9l-0.6-1.6l-0.1-0.2l-0.1-0.2l-0.1-0.2
	l-0.4-1.9l-0.1-0.3l-0.1-0.2l-0.1-1l-0.1-0.3l0-0.1l0-0.2l0.1-0.2l0.2-0.3l0-0.1l0.5-0.2l0-0.2l0-0.2l0.1-0.1l0.1-0.1l0,0.1l0,0.1
	l0.1,0.1l0.1,0h0.1l1-0.3l0.5-0.3l0.4-0.4l0.7-1l0.4-0.4l0.1-0.2l0.1-0.3l0-0.1l-0.1-0.1l0-0.2l-0.1-0.2l-0.2-0.3l-0.1-0.3l0.2-0.3
	l0,0.3l0.1,0.3l0.1,0.2l0.2,0.1l0.1,0.1l0.1,0.1l0.1,0l0.2,0l0.1,0l-0.2,0.6l-0.1,0.4l0.1,0.4l0.3,0.2l0.2,0l0.2-0.2l0.2-0.2l0,0.4
	l-0.2,0.3l-0.4,0.4l-0.3,0.6l-0.1,0.3l-0.3,0.3l-0.3,0.6l-0.6,0.3l-1.2,0.3l0.1,0.2l0,0.1l-0.4,0.3l-0.3,0.4l0,0.2l0.2,0.1l0.4-0.2
	l0.3-0.2l0.4-0.1l0.3-0.2l0.4-0.2l0.3-0.3l0.3-0.4l0.6-1.2l0.2-0.3l1.1-1.7l0.2-0.2l0.4-0.3l0.2-0.2l0.3-0.5l0.2-0.2l0.2-0.2
	l1.3-0.7l0.4-0.3l0.9-1l0.3-0.3l0.6-0.4l0.8-0.5l0.3,0l1.5-0.3l0.8,0.1l0.4-0.1h0.2l0.2,0.1l0.1,0.1l0.1,0.1l0.1,0.2l0,0l0.1,0.1
	v0.1l0,0.1l0,0.1l0.1,0.2l0,0l0-0.1l0.1,0l0.1-0.1l0,0.1v0.2h0.1l0.1-0.5l0.2-0.4l0.8-0.8l0.3-0.3l0.4-0.2l0.6-0.1l0.5-0.3h0.7
	l0.1-0.1l0.1-0.1l0.1-0.1l0.2-0.1l0.3,0.1l0.2,0l0.2-0.1l0.2,0.1L164,97l0.2,0.1l0.4,0.5l0.1,0.1v0.3l-0.1,0.6l-0.2,0.4l-0.2-0.1
	H164v0.1l0.3,0.1l0.3-0.3l0.2-0.4l0.1-0.4l0.1-0.4l0.2-0.4l0.2-0.4l-0.1-0.4l0.4-0.1l0.6-0.6l0.4-0.1l0.1-0.1l0.4-0.3l0.1-0.1l0.2,0
	l1.3-0.5l0.5-0.4l0.2-0.1l0.4,0.1l0.4,0.2l0.3,0.3l0,0.4l0.3-0.1l0.2-0.3l0.3-0.6l1.2-1.7l0.7-0.7l0.4-0.1l1.4,0.3l0.5,0l1.2-0.4
	l1,0.2l0.1-0.1l0.3,0.1l0.4,0.2l0.1,0l0.3-0.2l0.1-0.1l0.1,0l0.4,0.3l0.3,0.1v0.3l-0.3,0.5l0.4-0.2l0.6-0.8l0.2-0.2l-0.2-0.4
	l-0.1-0.5l0.1-0.5l0.2-0.4l0.2-0.1l0.3-0.1l0.2-0.2l0.2-0.2l0-0.3l-0.1-0.2l-0.2-0.1l-0.2,0l-0.4,0.1l-0.2,0l-0.1-0.2l0-0.3l0.1-0.3
	l0.3-0.5l0.3-0.5l0.1-0.5l0-1.2l0.2-0.6l0.2-0.6l0.3-0.5l0.4-0.3l2.3-0.3l0.3-0.1l0.2-0.2l0.4-0.5l0.2-0.2l0.2,0l0.4,0.2l0.2,0
	l0.1-0.3l0.1-0.7l0.2-0.8l0.3-0.6l0.4-0.5l0.5-0.2l1.8,0.1l0.6,0.4l0.2,0.1l0.2,0l0.4-0.1l1.7-0.1l0.2,0l0.4,0.3l0.2,0.1l0.2,0
	l0.5-0.1l0.2,0.1l0.3,0.1l0.7-0.1l0.3,0l1.1,0.3l0.4-0.1l0.3-0.3l0.2-0.4l0.1-0.5l0-0.1l-0.1-0.2v-0.1l0-0.2l0.1-0.3l0-0.1l0-0.3
	l0-0.2l-0.2-0.4l-0.1-0.2l-0.1-0.1l0-0.1l0.1-0.2l0.1-0.1l0.6-0.1l0.1,0l0,0l0-0.2l-0.2-0.5l0-0.4l0.1-0.3l0.6-1l0.2-0.3l0.5-0.4
	l0.2-0.2l0.1-0.3l0-0.3L200,72l-0.2-0.1l-0.6,0.2l-0.2,0l-0.8-0.5l0.8-0.6l0.2-0.3l0.3-0.3l-0.1-0.1l-0.1-0.2l-0.1-0.4l-0.3-0.8
	l-0.1-0.1l-0.1-0.1l0-0.3l0.1,0l0.1,0l0.1,0l0-0.1l0-0.1l0-0.1l0-0.1l0-0.1l-0.1-0.4l-0.2-0.3l-0.3-0.2l-1.3-0.2l-0.2,0.1l-0.4,0
	l0.1-0.4l0.7-2.3l0.1-0.1l0.3-0.1l0.1-0.2l0.1-0.2l0.1-0.2l0.2-0.3l0.2-0.1l0.3,0l1.2,0.5l0.4-0.1l0.5-0.4l0.2-0.3l0.2-0.3l0-0.3
	l-0.2-0.3l-0.3,0l-0.2,0.2l-0.2,0.3l-0.2,0.1l-0.1-0.1l-0.2-0.3l-0.1-0.1l-0.1,0l-0.4,0.1l-0.9-0.2l-0.3-0.1l-0.1-0.2l-0.1-0.2
	l-0.2-0.3l-0.2-0.2l-0.2-0.2l-0.2-0.2l0.1-0.9l0.2-0.1l0.6,0l0.9-0.3h0.3l0.3,0.1l0.2,0l0.1-0.1l0.1-0.2l0-0.5l0.1-0.2l0.2-0.4
	l0.3-0.3l0.7-0.4l0.2-0.2l0.4-0.6l0.2-0.2l0.3-0.2l0.1-0.2l0-0.6l0.2-0.6l0-0.3L201.8,54z M94.7,107.1l0,0.2l-0.1,0.1l-0.1,0.1
	l0,0.1l-0.1,0.1l-0.3,0.3l-0.1,0.1l-0.1-0.1l-0.1-0.1l-0.6-1.3l-0.3-0.4l-0.4-0.3l-0.8-0.3l-0.2,0l-0.2-0.1l-0.7-0.8l-0.1-0.2l0-0.1
	l0-0.2l0-0.1l0-0.1l0-0.1l0.1-0.3l0.9-0.4h0.1l0.1,0l0.1,0.1l0.1,0.1l-0.1,0.3l0.1,0.3l0.2,0.3l0.2,0.2l0.2,0l0.1-0.3l0-0.4l0.1-0.4
	l0.1,0.2l0.1,0.3l0,0.3v0.3l0.1,0.2l0.7,0.4l0.1,0.1l0.1,0.1l0,0.1l0,0.2l0,0.1l0,0.1l0,0.1l0,0.1l0.1,0.2l0.7,0.6l0.1,0.1l0.1,0.1
	l0,0.1V107.1z M142.7,110.5L142.7,110.5l0.2,0.2l0,0l0.1,0l0,0.1l-0.1,0.1h0l0,0l-0.1,0.1h0v0.1l0,0.1l0,0.1l0,0l-0.2,0.9l0,0.1
	l0,0.1l0.1,0l0.1,0l0.1-0.1l0.1-0.1l0.1-0.1l0-0.1l0-0.1l0.1-0.1l0.1,0l0.1,0.1l0.1,0.1l0.1,0.1l0.1,0.3l0.1,0.6l0.1,0.3l0.4,0.7
	l0,0.1l0,0.1l0.2,0.3l0,0.2l0.1,0.1l0.1,0l0.1,0.1l0.1,0.2l0.2,0.5l0.3,0.4l0.1,0.2l0.5,0.5l2.3,3.4l0.1,0.1l0.1,0l0.1,0.1l0.1,0.1
	l0.1,0.1l0.1,0.1l0.2,0.1l0.2,0l0.2,0.1l0.2,0.2l-0.2,0.3l-0.2,0.1l-0.2,0l-0.2-0.1l-0.2-0.2l-0.1-0.2l-0.1-0.1l-1.3-0.5l-0.2-0.1
	l-0.1-0.1l-0.2-0.1l-0.2-0.1h-0.2l-0.2,0.1l-0.1,0.1H146l-0.6-0.5l-0.1-0.2l-0.3-0.6l-0.2-0.2v-0.1l0.1-0.1l0.4-0.1l0.1-0.1l0.1-0.1
	l0.1-0.1l0.1-0.1l0-0.2l0-0.1l-0.1,0l-0.2-1.1l-0.1-0.2l-0.3-0.3l-0.1-0.2l0-0.2l-0.1-0.2l-0.1-0.1l-0.1-0.1l-0.3-0.7l-0.1-0.1
	l-0.6,0.1l-0.2,0l-0.1-0.1l-0.1-0.3l-0.1-0.1l-0.1,0l-0.3-0.1l0.1-0.2l0.2-0.2l0.1-0.1v-0.1l-0.2,0l-0.4,0.3l-0.2,0l-0.4-0.1l-0.2,0
	l-0.2,0.1l0.2-0.3l0.3-0.3l0.1-0.3l-0.2-0.4l-0.3-0.1l-0.3,0.1l-0.3,0.2l-0.3,0.1l0.1-0.2l0.2-0.3l0-0.2l0-0.2l0.1-0.1l0.1-0.1
	l0.2,0l0,0l0.3-0.1l0.1,0l0.1-0.1l0-0.2l0-0.2l-0.1-0.2l-0.3,0.4l-0.2,0.1l-0.5,0.1l-0.2,0.1l-1.1,1l-0.4,0.2l-0.5,0.1v-0.1l0.3-0.2
	l0.1-0.1l0.1-0.1l0.1-0.2l0.1-0.2l0.1-0.1l0.1-0.1l0.1-0.4l0.1-0.1l0.2,0l0.1-0.1l0.1-0.1l0.1-0.1l0.1-0.1l0.2-0.3l0-0.1l0.1-0.3
	v-0.1l0-0.1l0-0.2l-0.1-0.1l-0.8-0.3v0.1l0.2,0.2l0.1,0.2l0,0.2l-0.1,0.2l-0.2,0l-0.2-0.1l-0.1,0.1l0,0.1l-0.1,0.2l-0.2,0.3l-0.1,0
	l-0.1-0.2l-0.2-0.4l0.2-0.3l0.1-0.1l-0.2-0.1l-0.2,0.1l-0.2,0.2l-0.1,0.3l0,0.4l-0.1,0.2l-0.1-0.1v-0.4H138l0,0.1l0,0.1l-0.1,0
	l-0.1,0l0-0.1l0-0.1l0-0.1l0-0.1l-0.3,0.3l0-0.2l0.1-0.3l0-0.2l0.1-0.1l0.3-0.1l0.1-0.1l0-0.3l-0.2-0.2l-0.2-0.1l-0.2-0.2l0.1,0
	l0.2-0.1l-0.3-0.4l-0.2-0.2l-0.2,0l0,0.1l0,0.3l-0.1,0.1l-0.1,0l-0.1,0l-0.1-0.1l-0.1-0.1l0-0.2l0-0.3l0-0.1l-0.4,0.6l-0.1,0
	l-0.1-0.2l0.1-0.2l-0.2-0.1l-0.5-0.2l-0.1,0.1l-0.1-0.1l-0.1-0.1l-0.1-0.1l-0.1,0l0,0l-0.1-0.1l-0.1,0l0,0l0,0.1l0,0.1l0,0l0.1,0.1
	l0.6,0.5l0.1,0.1l0.1,0.2l0,0.3l-0.1,0.3l-0.2,0.1l-0.2,0l-0.1,0.1l-0.3-0.3l-0.1-0.2l-0.1-0.3l0.2,0.1h0.2l0.1-0.1l0.1-0.1v-0.1
	l-0.6-0.6l-0.4-0.2l-0.5-0.7l-0.2-0.2l-0.2-0.1l-0.5,0l-0.1,0l0,0.1l0.2,0.2l0.1,0l0.1,0l0.1,0l0.1,0.2l-0.2,0.1v0.1l0.1,0.2
	l0.1,0.2l-0.1,0.2l-0.2,0l-0.2-0.1l-0.1-0.1l-0.1-0.1l0-0.2l-0.1-0.2l-0.1-0.1l-0.1,0.1l-0.1,0.1l-0.1,0.1H132l0.1-0.1l-0.1-0.1l0,0
	v-0.1l0.2-0.1l-0.1-0.3l-0.4-0.5l0.1-0.1l0-0.2v-0.4l-0.1-0.1l-0.5-0.2v0.5l-0.1,0.3l-0.1,0.1l-0.5-0.3l-0.1-0.1l-0.5-0.9l-0.1-0.1
	l-0.1-0.1v-0.1h0.3l0.2,0.1l0.2-0.1l0.1-0.2l0.2-0.2l0.2,0l0.2,0l0.2,0.1l0.1,0.2l0.1,0.1l0.1,0l0.2,0l0.1,0l0.2-0.1h0.1l0.6,0.3
	l0.2,0l0.1,0.2l0.3,0.7l0.2,0.2l0.1,0l0,0.1l0,0.1l0,0l0.1,0l0,0l0,0l0.1-0.1l0.1-0.1l0.1,0l0.1,0v0l0,0.1l0,0.1l0,0.1l0,0l0.1,0
	h0.1l0.2,0.1h0.1l0-0.1l-0.1-0.2l-0.1-0.4l0,0l-0.1,0l-0.1-0.1l-0.2-0.1v-0.1l0.3,0.1l0.1,0l0-0.2l0.1-0.1l0.1,0l0.1,0.1l0.1,0.2
	v0.1l-0.1,0.3l0.1,0.2l0.1,0.1l0-0.1l0.4-0.5l-0.4-0.4l-0.2-0.2l-0.1-0.2l0-0.4l0-0.3l0.1-0.1l0.2,0.1l0.3,0.3l0.3,0.4l0.6,1.2
	l0,0.1l0,0.2v0.4l0,0.2l0.1,0.1l0.1-0.2l0.1-0.4l0.1-0.4v-0.2l-0.1-0.1l-0.3,0l-0.1-0.1l0-0.1l0.1-0.1l0.1-0.1l0-0.1l0.1,0l0.7,0.4
	l0.8,0.6l0.4,0.1l0.4-0.3l0.1-0.3l0.1-0.1l0.1-0.1l0.1,0.1l0.1,0.1l0.1,0.2l0.1,0.2v0.4l0,0.2l-0.1,0.2l0,0.2l-0.1,0.2l-0.1-0.2
	l-0.1-0.3l0-0.2l-0.1,0.1l-0.1,0.3l-0.1,0.2l0-0.3l0-0.1l0-0.1l0-0.1l-0.1,0l-0.4,0.3l-0.1,0.3v0.3l0.1,0.3l0.2,0.2l-0.1,0.2l-0.1,0
	l-0.1-0.1l-0.2,0l-0.1,0.1l-0.1,0.2l0,0.2l0.1,0.1h0.3l0.3,0l0.1,0.2l-0.1,0.4l0.2,0.1l0.4-0.4l0.5,0.2l0.2-0.2l0.6-1.2l0-0.2l0-0.3
	l-0.1-0.3l-0.1-0.3l0-0.3l0.3-0.4l0.5,0.1l0.5,0.3l0.3,0.3l0.1,0.2l0.1,0.3l0,0.3l-0.2,0.1l-0.1-0.1l-0.2-0.2l-0.1-0.1l-0.3,0
	l-0.4,0.1l-0.1,0.1l-0.1,0.1l0.2,0.1l0.2,0.2l0.1,0.3l0.1,0.2l0.3,0.3l0.1,0.1l0.1-0.1l0-0.2l0.1-0.2l0.2,0l0.1,0.2l0.1,0.3l0.1,0.4
	l0,0.3v0.4l0,0.2L142.7,110.5z"/>
<path class="st1" d="M201.8,53.1l-0.5-0.6l-0.4-0.7l-0.2-0.5l-0.1-0.5l0.2-0.6l0.2-0.2l0.4-0.3l0.2-0.2l0.1-0.3l-0.2-0.2l-1.1-0.3
	h-0.2l-0.3,0.1l-0.7,0.7l-0.3,0.2l-0.3,0.1l-0.3,0.1l-0.3,0l-0.2-0.1l-0.6-0.6l-0.4-0.2l-0.4-0.1l-0.3-0.2l-0.3-0.6l-0.2-0.7
	l-0.1-0.4l-0.1-0.2l-0.7-0.1l-0.2-0.1l-0.4-0.3l-0.4,0.1l-0.4,0.2l-0.4,0.1l-0.4-0.1l-0.3-0.2l-0.3-0.3l-0.6-1.6l-0.3-0.3l-0.4,0.2
	l-0.2,0.2l-0.3,0.5l-0.2,0.2l-0.2,0.1l-1,0.1l-0.3-0.3l-0.3-0.4l-0.4-0.3l-1.2-0.3l-0.3-0.3l-0.5-1l0-0.1v0l0,0l-0.3,0.1l-0.1,0.1
	l-0.1,0l0,0l-0.6,0.3l-1.1-0.5l-1.3-1.5h-1.3h-1.2h-1.6l-1.3-1.3c0,0-1.1-0.2-1.4,0c-0.2,0.1-0.5-0.1-0.8-0.2l0-0.1l-0.4-0.6
	l-0.4-0.4l-0.1-0.1l0-0.2l0-0.2l0.1-0.4l0-0.7l-0.3-0.4l-1-0.5l-0.2-0.5l-0.2-0.6l-0.2-0.4l-0.2-0.1l-1.1,0.2l-0.3,0.1l-0.7,0.7
	l-0.3,0.3l-1.6,0.5l-0.8-0.1l-0.7,0.1l-0.7,0.3l-1.8,1.1l0,0v0.1l-0.4,0.4h-1.7c0,0-0.7-1.3-1-1.4c-0.4-0.1-0.9-1-0.9-1
	s-1,0.1-1.4,0c-0.2-0.1-0.3-0.2-0.4-0.4v-0.1l-0.1,0c-0.1-0.2-0.2-0.4-0.2-0.4l-0.3-0.2l-1.9-0.2l-1,0.1l-0.2,0.1l-0.2,0.1l-0.2,0.3
	l-0.1,0.1l-0.1,0h-0.2l-0.1,0l-0.2,0.2l-0.1,0.2l-0.2,0.2l-0.3,0.1l-0.2,0l-0.2-0.1l-0.2-0.1l-0.2-0.2l-0.2-0.3l-0.1-0.3l0-0.3
	l-0.1-0.4l-0.2-0.3l-0.2-0.2l-0.2-0.1l-0.2,0l-0.4-0.2l-0.2-0.4l-0.5-2.1l0-0.2l0.2-0.2l0.9-0.4l-0.3-0.3l0-0.4l0-0.4l-0.1-0.5
	l-0.1-0.2l-0.1-0.1l-0.3-0.2l-0.2-0.2l0-0.2l0-0.2l0-0.3l-0.1-0.2l-0.2-0.3l-0.1-0.2l0-0.3l0-0.2l0-0.2l-0.1-0.2l-0.1-0.1l-0.3-0.1
	l-0.1-0.1l0-0.2v-0.5l0-0.2l0.6-0.1l0.2-0.2l0.1-0.3l-0.1-0.2l-0.2-0.1l-0.2-0.1l-0.4,0l-0.8,0.2l-0.4,0l-0.3-0.3l-0.2-0.6l-0.3-1.6
	l-0.1-0.3l-0.1-0.2l-0.2-0.1l-0.2,0l-0.2,0.1l-0.2,0l-0.2-0.1l-0.2-0.1l-0.2,0l-0.5,0.3l-0.9,0.4l-0.8,0.2l-0.8-0.1l-0.2-0.1
	l-0.2-0.2l-0.1-0.3l-0.1-0.3l-0.1-0.2l-0.2-0.2l-0.3,0l-0.7,0.1l-0.4-0.1l-0.8-0.3l-0.4-0.1l-0.4,0.1l-0.4,0.3l-0.2,0.1l-0.3-0.1
	l-0.8-0.3l0.6-0.4l0.4-0.5l0.3-0.6l-0.1-0.6l-0.2,0.1h-0.2l-0.2,0l-0.2-0.1l-0.2-0.1l-0.2-0.2l-0.1-0.2l0-0.2l0.1-0.1l0.2-0.1
	l0.1-0.2l0-0.2l0-0.2l0-0.2l0-0.2l0-0.2l0.1-0.3l0-0.2l0-0.4L136,15l-0.2-0.3l-0.5-0.5l-0.1-0.1l0-0.2l-0.1-0.4l0-0.1l-0.2-0.1
	l-0.4-0.1l-0.1-0.2l0.1-0.4l0.4-0.3l1.9-0.4l0.7,0l0.2-0.1l0.4-0.5l0-0.7l-0.3-0.7l-0.4-0.4l-0.2-0.2l-0.4-0.4l-0.2-0.1h-0.1
	l-0.2,0.1l-0.1-0.1v0l0-0.3l0-0.1l-0.1-0.1l-0.2-0.1l-0.1-0.1l-0.4-0.5l-0.2-0.2h-0.6V7.4l0.1-0.3l0-0.3l-0.2-0.4l-0.1-0.3l-0.1-0.3
	l0-0.6l0-0.3V4.8l0.2-0.4V4.2l0-0.2l-0.1-0.2l-0.1-0.2L134,3.3l-0.2-0.2l-0.7-0.5l-0.2-0.2l-0.3-0.6l-0.2-0.3L132,1.2L131.7,1
	l-0.2-0.3l-0.1-0.3l-0.1-0.2l-0.3-0.1l-0.5,0l-0.5,0.1l-1,0.5l-0.8,0.8l-0.2,0l-0.2-0.3l0.1-0.7l-0.2-0.3l-0.2,0.1l-0.2,0.1
	l-0.2,0.1l-0.2,0l-0.2-0.1l-0.3-0.2l-0.2,0h-0.7L124.6,0l-0.2,0l-0.2,0.1L124,0.6l-0.1,0.1l-0.2,0.1l-0.1,0.1l-0.1,0.2l-0.1,0.1
	l-0.1,0l-0.1-0.1l-0.1,0l-0.2,0.1l-1.1,1l-0.2,0.1l-0.2,0l-0.3-0.3L120.8,2h-0.3l-0.7,0.2h-0.3L117.3,1l-0.5,0.2l-1-0.4l-0.4,0.1
	l-0.2,0.6l0.1,0.2l0.2,0.4l0,0.2l-0.1,0.2l-0.1,0.1l-0.1,0.1L115,2.7l-0.1,0.3l-0.1,1.1l-0.3,0.7L114,5.2L112.4,6l-0.2,0l-0.7-0.2
	l-0.4,0l-0.6,0.3l-0.2,0L110.2,6l0-0.3V5.4l-0.1-0.3l-0.3-0.3l-0.4-0.1l-0.7,0.1l-1.3,0.1l-1.9-0.4h-1l-0.9,0.4l-0.2,0.3l-0.2,0.4
	l-0.2,0.3L102.9,6l-0.3-0.1l-0.5-0.4l-0.3-0.2l-0.4-0.1l-1.5,0.1l-0.3,0.1l-0.2,0.2l0.1,0.3L99.4,6l0,0.1l0,0.1l0,0.1l0.3,0l0.1,0.3
	l-0.1,0.2l-0.3,0l-0.1-0.1l-0.1,0l-0.1,0l-0.1,0.1L99,6.9L99,7v0.1l-0.1,0.2l-0.1,0.1l-0.1,0.1l-0.2,0.1l-0.3,0.1v0.1l0,0.1L98.2,8
	v0.1l-0.2,0.2L98,8.5l-0.1,0l-0.3,0l-0.1,0l0,0.1v0.2l0,0.2l-0.2,0.1l-0.1,0.1L97,9.3L97,9.4l0,0.1l-0.2,0.3l-0.1,0.1l0,0.1V10
	l0.1,0.2l0,0.3l-0.2,0.2l-0.3,0.2L96.1,11l0.2,0.1l0.1,0v0.1l-0.1,0.1l0,0.2l0,0.2L96.2,12L96,12l-0.4,0l-0.1,0l0.1,0.2l-0.1,0.4
	l0.1,0.3L95.5,13l-0.1,0.1l-0.1,0l0,0.1l0,0.2l-0.1,0.1L95,13.8v0.1l0.2,0.2l0.1,0.1v0.1l-0.1,0l0,0l0,0l-0.1,0v0.1l0.1,0.2l0.4,0.1
	l0.2,0.1l-0.1,0.2l-0.1,0.1l-0.1,0.1l0.1,0.1l0.1,0.1l0,0.1l-0.1,0.1l0.1,0.2l0.1,0.1l0.1,0.1l0.1,0.1v0.1l-0.2,0l-0.1,0l-0.1,0.1
	l0,0.2l0,0.2l0.1,0h0.1l0.1,0.1l0.1,0.1l0.1,0.5l0.1,0.1l0.1,0.1l0,0.1L96.2,18l0.1,0.5L96,18.9l-0.3,0.3l0,0.3l-0.2,0.4l0,0l0,0.4
	l-0.1,0.1l-0.1,0l-0.1-0.2L95,20l-0.1-0.1l-0.2,0l-0.2,0l-0.2-0.1l-0.3-0.4L94,19.3l-0.2,0h-0.3l-0.2-0.1l-0.2-0.1l-0.3-0.4
	l-0.1-0.2l0,0l0.1-0.4l0-0.1v-0.2l0-0.1l0-0.1l-0.1-0.1l-0.1-0.1L92,17l-0.2-0.2l-0.4-0.6L91.1,16l-0.3-0.1l-1.5,0L89,16.1l-0.7,0.3
	h-0.1L88,16.3l-0.1,0l-0.1,0.1l-0.2,0.3l-0.1,0.1l-0.2,0.1l-1-0.2l-0.1-0.2L86,16.3l-0.2-0.3l-0.2-0.1l-0.2,0l-0.3,0L85,15.9
	l-0.2,0.2l-0.1,0.2l-0.2,0.2l-0.3,0.1l-0.3,0l-0.2,0.1l-0.1,0.2l-0.2,0.4l-0.2,0.3h-0.2l-0.5-0.2l-0.3,0.1l-0.4,0.4L81.7,18
	l-0.2-0.1l-0.1-0.3l-0.1-0.4l-0.1-0.4l-0.2-0.3l-0.2-0.1l-0.1-0.2l0.1-0.5l0-0.5L80.5,15l-0.4-0.6l-0.2-0.6l-0.1-0.2l-0.3-0.2
	l-0.4-0.1l-0.2,0l-0.2,0.1l-0.2,0.2l-0.3,0.6l-0.2,0.2l-0.3,0.1h-0.7l-0.3,0.1l-0.3,0.2l-0.3,0.3l-0.3,0.4l-0.2,0.5l0,0.3l0,0.7
	l-0.1,0.3l-0.2,0.2L75,17.2L75,16.9l-0.1-0.2l-0.1,0l-0.2,0.1l-0.2,0.1l-0.2-0.1l-0.1-0.2l-0.1-0.3l-0.2-1l0-0.4l-0.1-0.2l-0.3-0.1
	l-1-0.2h-0.3l-0.3,0.1l-0.6,0.4L71,15.1l-0.1,0.1l-0.1-0.1L70.7,15l-0.1-0.5l-0.1-0.2l-0.1-0.2L70,14l-0.1-0.1l-0.1-0.2l0-0.2v-0.2
	l0-0.2L69.6,13l-0.2,0l-0.2,0.1l-0.2,0.2l-0.2,0.3l-0.4,0.7L68,14.5l-0.2,0.1h-1.1l-0.2-0.1l-0.2-0.1l-0.7-0.7l-0.2-0.1l-0.2,0
	l-0.2,0.2l-0.1,0.3l-0.1,0.4v0.2l0,0.2l0,0.2l-0.1,0.2l-0.1,0.1l-0.5,0.7L64,16.3l-0.2,0l-0.2-0.1l-0.2-0.1l-0.2-0.2l-0.1-0.1
	l0.4-0.9l0.1-0.4l-0.1-0.4L63.4,14l-0.6,0l-1.2-0.5l-0.4,0L61,13.6l-0.3,0.3L60.4,14l-0.2,0l-0.7-0.1l-0.4,0.1l-0.2,0L58.7,14
	l0.1-0.3l0.2-0.4l0-0.3l-0.3-0.1l-0.3,0l-0.2,0L58,12.7l-0.1-0.4v-0.5l0-0.4l-0.1-0.3l-0.3-0.2L57.1,11l-1,0L55,11.3l-0.7-0.1
	l-2.1-0.9l-2.4-0.1l-0.2-0.1l-0.1-0.2l0-0.2l0-0.2V9.4l-0.1-0.1l-2.6-0.1l-0.3-0.2l-0.7-0.6l-0.3-0.1l-0.8,0L42.2,8l-0.9,0.2
	l-3.7-0.1l-1.9-0.5l-0.5,0l-0.5,0.2l-1,0.5l-3.1,0.5l-0.2,0l-0.7-0.2L27,8.8l-0.2,0.1l-0.2,0.3l-0.4,0.6l-0.2,0.3l-0.3,1.2l-0.3,0.4
	l-1.3,0.9l-1.7,1.5L22,14.2l-0.3-0.3l-0.3-0.4l-0.4-0.2l-0.3,0l-0.8-0.2h-0.3l-1.1,0.3l-0.1,0.1l-0.1,0.1l-0.1,0.2l0,0.1l0.1,0.1
	l0.3,0.9l0,0.2l-0.1,0.3l-0.1,0.1l-0.1-0.1l0,0.1l0.1,0.3l0.3,0.1l0.2,0.1L19,16l-0.2,0.4l0,0.1l0.4,0.7l0.1,0.2l-0.1,0.1l-0.1,0.1
	l0,0.2l0.1,0.2L19,18l-0.2,0.2l-0.2,0.3l-0.1,0.2l0.1,0.4l0.2,0.1H19l0.2,0.1l0.6,1.4l0.2,0.3l0.6,0.4l0.5,0.5l0.1,0.2l-0.2,0.1
	l0,0.2l0.2,0.3l0.3,0.5l0.1,0.2l0.1,0.7v0.1l0,0.1l0.1,0.1l0.1,0.1l0.1,0.1l0.1,0.2l0,0.1l0,0.2l0.1,0.2l0.2,0.3l0.8,0.7l0.9,0.5
	l0.1,0.2l-0.1,0.3l-0.3,0.1h-0.4l-0.2,0.1l-0.3-0.2l-0.3,0l-0.3,0.2l-0.1,0.3l0,0.3l0.2,0.2l0.3,0.1l0.3,0v0.1L22.8,29l0.2,0.3
	l0.3,0.2l0.3,0.1L23.5,30l0.1,0.4l0.3,0.7l-0.2,0.4l0.1,0.8l0.1,0.2l0.1,0.1l0,0l-0.1,0.2L23.5,33l-0.7,0.4l0,0.2l0,0.3l0,0.2
	l-0.1,0.2l-0.2,0.6l-0.6,0.3l-2,0l0,0l0,0l-0.6,0.4c0,0-2,0.4-2.5,1c-0.5,0.6-1.1,2.8-1.1,2.8l-1.8,2l-0.3,0.5l-0.4,0.3l-0.4,0.5
	l-1.2,1.8L11,45L11,45.1l-0.1,0.3l-0.1,0.1l-0.1,0.1l-0.2,0.1l-0.1,0.1L10.3,46l-0.7,1.2l-0.2,0.2l-0.1,0.1l-0.2,0.1L9,47.6
	l-0.1,0.2l-0.2,0.5l-0.8,1.1l-0.3,0.7l0.2,0.6L7.9,51l0.1,0.7l0,0.2L8,52l0.1,0.2l0.2,0.3l0.1,0.1l0,0.3l0.2,1.6l0,0.3l-0.2,0.5
	l-0.1,0.6l-0.2,0.4L8,56.4l0.1,0.1l0.1,0l0.2-0.2l0.2,0.1h0l0,0l0.4,0.3l0.3,0.4l0.2,0.2l0.5,0.3l0.1,0.2v0.1l-0.1,0.3l0,0.2l0,0.2
	l0.2,0.3l0,0.1L10,59.2l-0.2-0.1l-0.3-0.2l-0.2-0.1l-0.1,0L9,58.4l-0.1-0.1l-0.1,0l-0.3,0.1l-0.4,0l-0.2,0l-0.2,0l-0.3-0.2l-0.4-0.5
	l-0.2-0.1l-0.2,0.2l-0.1,0.3l-0.1,0.4l-0.1,0.4v0.3l-0.2,0.2l-0.4,0.1l-0.2,0.2l-0.2,0.7l-0.1,0.3l0,0.1v0.2L5,61l-0.1,0.2l-0.3,0.2
	l-0.1,0.2l-0.1,0.2v0.1l0,0.1l0,0.6l0,0.1l-0.1,0.2L4.3,63l-0.1,0.1l-0.1,0.1l0,0.2l0,0.4L4,64.2l-0.1,0.3l-0.2,0.2l-0.1,0.1
	l-0.3,0.1L3.1,65L3,65.1l-0.1,0.3l-0.1,0.1l-0.7,0.6L2,66.3l0,0.3l0.1,0.7l0,0.3l-0.1,0.3l0,1.2l0.3,0h0L2.3,69l0.4-0.1L3,68.9
	l0.4,0.2l-0.2,0.5v0.3l0.3,0l0.1,0L3.7,70v0.2l0,0.2l0,0.2l0.1,0.3l0.5,0.8l0.1,0.1l0.1,0l0.1,0l0.1-0.1l0,0h0.1l0.2,0.1l0.2,0
	l0.2,0l0.2-0.1h0l0,0l0,0l0.8,1.1l0.1,0.3l0.2,0.5l0.2,0.4l0.1,0.1h0l0.2-0.1h0.8l0.2-0.1l0.2-0.1l0.2-0.1L8.9,74l0,0.1l0.4,0.2
	l0.3,0.3l0.2,0.2L9.9,75l0.1,0.3l0,0.2l-0.1,0.2l0,0.3l-0.2,0.2l0.1,0.2l0.4,0.3l0.2-0.1l0.2-0.1l0.1-0.2l-0.1-0.3l0.1-0.2l0.2,0
	l0.2,0.1l0.2,0.1l0.2,0.1l0.2,0.1l0.2,0l0.5-0.4l0.2-0.3l0.2-0.8l0.2-0.3l0.2-0.1l0.3,0l0.8,0.3l0.2,0.1l0.5,0.5l0.5,0.5l0.2,0.3
	l0.1,0l0.1,0h0.1l0.1,0h0.1l0.7,0.4l0.2,0l0.1-0.1l0.1-0.1l0.1-0.1l0.1-0.1l0.1-0.1l0.1,0l0.4-0.1l0.2,0.1l0.7,0.1l0.5,0.2l0.3,0
	l0.8,0l0.2,0.1l0.6,0.5l0.1,0.3h0.2l1.1-0.5l0.3,0l0.2,0.1l0.6,0.2l0.2,0.1l0.4,0.4l0.2,0l0,0l0.7,0.3l0.2,0l0.8-0.4l0.5,0l0.4-0.4
	l0.3-0.1h0.2l0.6,0.2l0.6,0l0.2,0.1l0.5,0.3l0.3,0.2l0.2,0.2l0.1,0.3l0,0.2l0.1,0.2l0.2,0.2l0.4,0.2l0.9,0.3l0.2,0.1l0.1,0.2
	l0.4,0.7l0.3,0.4l0.2,0.1l1.3-0.2l0.7-0.3l0.5-0.4l1.1-1.8l0.5-0.3l5.5-0.6l0.7-0.3l0.6-0.1l0.3-0.2l0.2,0l0.5,0.1l0.7-0.2l1.1,0
	l0.5-0.2l0.1-0.2l0.2-0.6l0.1-0.2l0.3-0.3l0.1-0.2l0.2-0.4l0.2-0.5l0.1-0.5l0-0.4l0.1-0.5l0.1,0l0.2,0l0.2-0.1l0.4-0.2l0.2-0.1
	l0.5,0l0.2,0l1.4-0.3l0.3-0.2l0-0.1l0-0.2l0.1-0.2l0.4-0.2l0.1-0.2l0.1-0.1l0.2,0.1l0.2,0.2l0.1,0.2L53,71l0.2,0.1l0.2,0l0.1-0.1
	l0-0.2v-0.3l-0.1-0.3l-0.1-0.2l0-0.2l0.1-0.2h0.1l0.2,0.1h0.1l0.1-0.1l0-0.1l0-0.1l0.1,0l0.4,0.2l0.4,0.3l0.4,0.2l0.4-0.1l0.1-0.1
	l0.1,0l0.1,0l0.1,0l0.1,0l0.1,0l0-0.1l0-0.1l0-0.1v-0.1l0-0.1l0-0.1l0.1,0l0.1,0l0.2,0.1l1.2,0.4l0.4,0l0.4-0.2l0.7-0.8l0.4-0.2
	l0.2,0.1l0.3,0.3l0.2,0.1l0.2-0.1l0.7-0.6l0.3-0.3H62l0.1,0l0.3-0.2l0.2,0l0,0.4l0.2,0.1l1.4,0l0.4,0.2l0.7,0.5l0.2,0.1l0.3,0.5
	l0.1,0.1l0.2,0.4l0.4,0.2l1,0.1l0.2,0.1l0.2,0.2l0.1,0.3l-0.2,0.7l0.2,0.1l0.3,0l0.2,0l0.3-0.3l0.2,0l0.1,0.3l0,0.3l0.1,0.2l0.2,0.1
	l0.3-0.1l0.2-0.1l0.2-0.2l0.2-0.1l0.5-0.1l0.2,0l0.1,0.1l0,0.3L71,72.6l-0.1,0.2l-0.2,0.1l-0.2,0.2l-0.1,0.2l0,0.2l0.1,0.1l0.2,0
	l0.2-0.2l0.1-0.3l0.1-0.2l0.3,0l0.2,0.1l0.1,0.2l0,0.3l-0.2,0.2l0.3,0.7l0.1,0.1l0.2,0.2l0.1,0l0-0.2v-0.3l0.1-0.3l0.2-0.6l0.3-0.1
	l0.4,0l1,0.4l0.8,0l0.4,0.1l0.3,0.2l0.1,0.1l0,0.1l0,0.1l0,0.1l0.2,0.4l0.1,0.4l0,0.1l0.1,0.1l0.2,0.2l0.3,0.5l0.4,0.4l0.4,0.3
	l0.3,0.1l0.4-0.1l0.5-0.6l0.3-0.2h0.2l0.2,0.1l0.1,0.1l0.1,0.2l0.1,0.3l0.1,0.6l0.1,0.2l0.2,0.1l0.4,0.1l0.1,0.1l0,0.2l-0.2,0.2
	l-0.2,0.2l-0.1,0.2l-0.1,0.3v0.2l0.1,0.1l0.4,0.1l0.1,0.1l0,0.2L80.6,80l-0.3,0.4L80.2,81l0,0.6l-0.1,0.6l-0.3,0.5l-0.3,0.4
	l-0.1,0.4l0.1,0.7l0.1,0.2l0.2,0.5l0.1,0.2l0.2,0.2l0.1-0.1l0.1-0.2l0.2-0.1l0.2,0.1l0.2,0.4l0.3,0.2l0.1,0.2l0.1,0.2l0.1,0.2
	l0.2,0.1l0.2,0l0.2,0.1l0.1,0.2l0.1,0.3v0.2l0,0.2l0.2,0.3l0.2,0.1l0.2,0.1l0.2,0l0.2-0.1l0.2-0.2l0.2-0.2l0.1-0.3l0.1-0.3l0.2,0
	l0.2,0l0.2,0.1l0.2,0.2l0.2,0.3l0.1,0.4l0,0.4l-0.1,0.3l-0.3,0.1l0,0.4l0.1,0.9L84.2,90l-0.2,0.2l-0.2,0.1l-0.3,0l0,0v0.1l0,0.1
	l0.3,0.6l0.1,0.1l0.1-0.1l0.1-0.2l0.1-0.2l0.2,0l0.2,0.1l0.1,0.2l0.1,0.2l0,0.3l-0.1,0.2l-0.1,0.2L84.5,92l-0.1,0.6l-0.1,0.2l0,0.2
	l0.1,0.2l0.1,0l0.3,0l0.1,0.1l0.2,0.2l0.1,0.1l0.2,0.1l0.4,0l0.2,0.1l0.2,0.2l0.3,0.4l0.2,0.2l0.3,0.1l0.3,0l0.3,0l0.3,0.3l0.1,0.1
	l0.1,0.3l0.1,0.1l0.1,0l0.1-0.1l0.1,0l0.1,0.1l0,0.1v0.4l0,0.2l0,0.1l0.1,0.2l0.1,0.1l0,0.3l-0.1,1l0,0.2l-0.1,0.2l0,0.2v0.2l0,0.2
	l0.1,0.3l0,0.2l-0.1,0.3l-0.3,0l-0.2,0l0,0.4l0.2,0.2l0.5,0.2l0,0l0.1,0.2l0,0l0.1,0l0.1-0.1h0.1l0.1,0.1l0.1,0.1l0.1,0.3l-0.1,0.1
	l0.5,0.4l0.2,0.2l0.1-0.1l0.2,0l0.2,0l0.2,0.1l-0.3,0.5l-0.3,0.3l-0.5,0.1l-1.3-0.1l-0.2,0l-0.2,0.1l-0.4,0.4l-0.2,0l-0.2-0.3l0-0.1
	v-0.3l0-0.2l-0.1-0.1l-0.2-0.4l-0.6-0.6l-0.1-0.3v0.4l-0.1,0.2l-0.2,0.1h-0.3l-0.1,0.1l0.1,0.4l-0.1,0.3l-0.2,0.2l-0.2,0.1l-0.2,0
	l-0.2-0.1l-0.2-0.2l-0.2-0.3l-0.2-0.1l-0.2-0.1l-0.3-0.1l-0.2-0.1l-0.1-0.1l0-0.1l0-0.1l0.1-0.1l0.1-0.1l0-0.1l0-0.1l-0.1-0.1
	l-0.3,0l-0.2,0.1l-0.2,0.2l-0.5,0.7h-0.1l-0.2-0.3l-0.3-0.6l-0.2-0.1l-0.2,0.3l0,0.2l0.1,0.3v0.1l-0.1,0.2l-0.1,0l-0.1,0l-0.1,0
	l-0.4,0.4l-0.3,0.2l-0.2-0.2v-0.2l0.1-0.2l0.1-0.2l0.1-0.2l0-0.2l0-1.4l-0.1-0.3l-0.2-0.2h-0.2l-1,0.6l-0.6,0.2l-0.8,0.6l-0.2,0.3
	l-0.1,0.4l0.1,0.6l0.2,0.8l0,0.3l-0.1,0.3l-0.1,0.2v0.2l0.2,0.2l0.7,0.6l0.1,0.3l-0.1,0.4l-0.3,0.4l-0.4,0.4l-0.1,0.3l0,0.4l0.2,0.7
	l0,0.3l-0.3,0.1l-1.9,0.5l-0.2,0.1l-0.1,0.2v0.3l0.2,0.6l0,0.3l0,0.3l-0.1,0.2l-0.1,0.1l-0.2,0.1l-0.3,0.1l-0.1,0.1v0.1l0,0.1l0,0.2
	l0,0.2l-0.3,0.2l-0.7,0.1l-0.2,0.3l0.1,0.3l-0.1,0.1l-0.3,0.1l-0.2,0.1l-0.1,0.1l-0.3,0.4l-0.1,0.2l0.1,0.1l0.2,0.1l0.1,0.2l0.1,0.2
	l0,0.2l0,0.2L73,115l-0.3,0.1l-0.1,0.1l-0.1,0.1v0l0,0l0.1,0.5l-0.1,0.2l-0.2,0.1l-0.7,0l-0.8-0.2l-0.8-0.1l-0.6,0.4l-0.1,0.2
	l-0.1,0.2l0,0.1l0.2,0.2l0.3,0l0.3,0.2l0.2,0.3l-0.1,0.3l0.3,0.9l0.2,0.4l0.3,0.2l0.2,0.1l0.4,0.2l1,0.3l0.9,0.5l1.5,0.3l0.4-0.1
	l0.3,0l0.1-0.1l0.1-0.1l-0.3-0.1l-0.1-0.1l-0.1-0.1l0-0.1l0-0.1l0.3-0.2l0-0.2l0-0.2l0.3-0.1l0.2,0.1l0.3,0.2l0.3,0l0.1,0.1l0.2,0.2
	l0.2,0.1l0.3-0.1l0.1-0.1l0-0.3l0.1-0.1l0.1-0.1l0.1,0l0.3,0l0.2-0.1l0.6-0.5l0.5-0.1l0.2-0.1l0.2-0.2l0.1,0l0.3,0l0.1,0l0-0.1
	l0.1-0.1l0.2-0.1l0.2-0.1l0.2,0l0.2,0h0.2l0.1,0l0.1-0.1l0.1-0.1l0.1-0.1l0.1-0.1l0.1,0l0.1,0.1l0.1,0l0.9,0.1l1.6,0.6l0.5,0.5
	l0.1,0.1l0.2,0.2l0.2,0.5l0.1,0.6l-0.1,0.4l0.1,0.1l0,0.1l0,0.1l-0.1,0.1l0.2,0l0.2-0.1l0.2-0.1l0.2-0.2l0,0l0,0l0-0.1l0-0.2
	l0.1-0.4l0-0.1l0.1-0.2l0-0.1l0-0.1l0-0.7l0-0.3l-0.1-0.3l-0.2-0.2l0.2,0l0.1-0.2l0-0.3l-0.1-0.3l-0.2-0.2l-0.1,0.1l-0.1,0.3
	l-0.1,0.2L86,117l-0.1-0.1l-0.1,0l-0.1,0v0.1l-0.1,0.1l-0.1,0l0-0.1v-0.4l-0.2,0l0,0.2l0,0.2l0,0.1l-0.1,0l-0.1-0.1L85,117l-0.2-0.4
	v-0.1l0.2-0.1l0.1-0.1l0.1-0.2l0.1-0.2l0.1-0.1l0.2-0.1l0.4-0.6l0.1-0.2l-0.3,0.3l-0.2,0.1l-0.2,0l-0.2,0l-0.2-0.1l-0.3-0.1l0.1-0.7
	l0-0.8l0.1-0.6l0.4-0.3l-0.1-0.2l-0.1-0.1l0-0.1l0-0.2l0.1-0.2l0.2-0.3l0-0.1l0-0.1l-0.2-0.2l0-0.1l0-0.1l0.1-0.1l0.1,0l0.1,0.1
	l0.1,0.1l0.2,0.2l0,0l0,0l0.1,0.1l0.1,0.2l0,0.1l-0.1,0.1l-0.1,0.3l0.1,0.8l0,0.1l0.3,0.1l0.2,0.3l0.1,0.4l0,0.4l0.1-0.1l0.3-0.1
	l0.2-0.1l-0.1-0.1v0l0,0l0-0.1l0.2,0.1l0.2-0.1l0.2-0.2l0.2-0.1l0.1-0.1l-0.1-0.1l-0.2-0.2l-0.3-0.1L87,113l-0.1-0.2l0.1-0.3
	l0.2-0.2l0.3-0.1h0.3l0,0l0-0.1l0-0.1l0.1,0l0.1,0l0,0.1l0,0.1l0,0.1l0.2,0.2l0.1,0.1l0.1,0.2l0.1-0.4l-0.1-0.1l-0.1-0.2l-0.1-0.2
	l0-0.3l0.1-0.2l0.1,0l0,0.1l-0.1,0.2v0.1l0.1,0.1l0.1,0.2l0.1-0.4l0-0.4l0.1-0.3l0.3-0.1l0.3,0.1l0.5,0.4l0.1-0.1l0-0.1l0.1,0
	l0.1,0.1l0,0l0.1,0l0-0.1v-0.1l0-0.1l0-0.1l0-0.4l0.1-0.2l0.1-0.2l0.1-0.1l0.1,0l0.1,0.9l0,0.2l0.7-0.6l0.6-0.6l1.2-1.6l1.4-1.3
	l0.1-0.2l0.2-0.6l0.1-0.1l0.2-0.1l0.2-0.2l0.2-0.5l0.8-1.1l0.3-0.6l0.1-0.2v-0.2l-0.1-0.1l-0.3-0.2l-0.1-0.1l0.1-0.2l0.6,0l0.2-0.2
	l0.5-0.6l0-0.1l0.1-0.5l0-0.1l0-0.1l0,0l0.1,0l-0.1-0.1l-0.1-0.1h0l-0.1-0.3l-0.2-0.4l0-0.2l0.1-0.1l0.3-0.5l0.1-0.1h0.1l0.5,0.1
	l0.1,0l0.7-0.5l0.2-0.1l0.1,0.1l0.1,0l0.3-0.2l0.1-0.1l0.3,0l0.5-0.2l0.6-0.1l0.6-0.2h0.3l0.8,0.2l0.2,0.2l0.1-0.1l0.1,0.1l0.3,0
	l0.2,0.1l0.2-0.1l0.5-0.3l0.2-0.1l0.1-0.1l0.4-0.6l0.2-0.1l0-0.1l0.2-0.3l0.1-0.2l0-0.1l-0.3-0.3l-0.1-0.1l-0.1-0.1l0-0.2l0-0.1
	l-0.1-0.4l0.2,0.1l0.1,0.2l0.2,0.4l0.2,0.1l0.1,0.1l0.1,0l0,0l0-0.1l0.2-0.3l0.1-0.1l0.1-0.1l0.2-0.1l0.1-0.1l0.1-0.2l0.1-0.2
	l0.1-0.1l0.1,0.2l-0.5,0.8l-0.1,0.1v0.2l-0.2,0.4l-0.6,1l-0.1,0.3l0,0.2l0.1,0.1l0.1,0l0.2,0l0.1,0l0.2,0.2l0.1,0.1l0.3,0l0.1-0.2
	l0.1-0.2l0.2-0.1l0.7-0.1l1.1,0.4l0.5,0.1l0.5-0.1l0.1-0.1l0.3-0.2l0.1-0.1l0.1-0.2l0-0.1l-0.1-0.1l0-0.3l0.1-0.7l0-0.1l-0.4-0.6
	v-0.4l0.1-0.3l0.2-0.2l0.3-0.1l0.3-0.2l0.2-0.4l0.1-0.5l0-0.4l-0.2,0.1l-0.3,0.1l-0.2-0.1l-0.1-0.3l0.1-0.3l0.2-0.3l0.3-0.4
	l-0.4-0.1l-0.5,0.1l-0.3-0.2l0.1-0.7l0.1-0.1l0.2-0.3l0.1-0.3l-0.1-0.1l-0.1,0l-0.1-0.1l-0.1-0.1l-0.3-0.1l-0.1-0.1l0-0.9l-0.1-0.2
	l-0.5-0.1l-0.2-0.1l-0.2-0.2l-0.1-0.2l0-0.1l0.2-0.3l0-0.1l0.1,0.1l0,0.1l-0.1,0.3l0.1,0.2l0.7,0.3l0.2,0.2l0,0.1v0.2l0,0.3l0.1,0.3
	l0.1,0.1l0.1,0l0.2,0.1l0.2,0.4l0,0.4l-0.3,0.7l0.2,0.2l0.2,0l0.5-0.1l0.3,0l0.1,0.1l-0.1,0.2l-0.3,0.5l0,0.2l0.1,0.1l0.6,0.1
	l0.1,0.2l0,0.2l-0.1,0.3l-0.2,0.6l-0.3,0.5l-0.2,0.5l0,0.7l0.1,0.3l0.1,0.2l0.1,0.2l0,0.3l0.1,0.3l0.1,0.3l0.2,0.3l0.2,0.2l0.2,0.1
	l0.7,0.1l0.2,0.1l0.2,0.6l0.2,0.2l0.3-0.3l0.1,0l0.2-0.1l0.1,0l0.1-0.1l0.2-0.2l0.1,0l0.1,0l0.2,0.3l0.7,0.4l0.8-0.1l1.5-0.9
	l0.3,0.1l0.3-0.2l0.3-0.2l0.3-0.1l-0.1,0.3l-0.2,0.2l-0.2,0.1l-0.2,0.2l-0.2,0.1l-0.5,0.1l-0.2,0.1l-0.8,0.7l-0.3,0.4l0.2,0.3
	l-0.3,0.3l-0.4,0.2l-0.5,0l-0.5-0.1l-0.6-0.4l-1.2-0.3h-0.2l-0.6,0.1l-0.9-0.2h-0.9l-0.2-0.1l-0.6-0.4l-0.4-0.1l-1.9,0.2l-0.2-0.1
	l-0.3-0.3l-0.4-0.3l0.2,0.4l1.3,1.3l0.2,0.1l0.1,0.1l0.3,0.7l0-0.5l0-0.2l0-0.1l0.1-0.1l0.2-0.2l0.2-0.1l0.3,0l0.3,0.1l1.5,0.6
	l0.5,0.1l0.4,0l0.2,0.1l0.5,0.7l0.1,0.2L112,102h-0.2l-0.1,0l-0.6,0.5l-0.1,0.1l-0.8,0.2l-0.6-0.1l-0.2,0l-0.2,0.1L109,103l-0.1,0.2
	l0.1,0.3l0.2,0.2l0.2,0.1l0.2,0.1l0.7,0l0.1-0.1l0-0.2l0-0.2l0.1-0.2l0.9,0.7l0.6,0.3l0.3-0.1l0.3,0.3l0.4,0.6l0.1,0.1l0.2,0
	l0.5,0.2l0.3,0.1l0.3,0l0.3-0.2l0,0.2l-0.1,0.1l-0.2,0.2l0.1,0.1l0,0.2l0,0.1l0,0.1l0,0.2l0,0l0.1,0l0.1,0l0.2,0.2l2.2,0.6l0.4-0.1
	l0.1-0.1l0.2-0.2l0.1-0.1l0.1,0l1.4-0.3l0.4-0.2l0.2,0l0.3,0l0.6,0.2l0.1,0l0.3,0l0.1,0l0.1,0.1l0.1,0h0.2l1.2-0.2l0.2-0.2l-0.1-0.5
	l0.7,0.3l0.2,0.2l0.1,0h0.1l0.1-0.1l0.1,0l0.3-0.2l0.2-0.4l0.2-0.4l0.2-0.3l-0.1,1.1l0,0.2l-0.1,0.2l0.9-0.1l0.3,0.1l0,0.2l-0.1,0.2
	l-0.2,0.2l0.1,0h0.1l0.1,0l0.1,0.1l0.2-0.3l0.3,0.1l0.3,0.3l0.3,0.5l0.1,0.1h0.7l0.2,0.1h0.1l-0.2-0.3l0.1-0.2l0.3-0.1l0.3,0v-0.1
	l-0.3-0.2l0-0.2l0.2-0.2l0.2-0.2l0.3-0.1l0.2,0.2l0.3,0.6l0.1,0.3l-0.1,0.2l-0.1,0.2l0,0.2l0.1,0.5l0,0.1l-0.1,0.1l-0.1,0.2l0,0.1
	l0.1,0.1l0,0.1l-0.1,0.2l-0.2,0.3l0.1,0.1l0.1,0l0.1-0.1l0.1-0.1l0.3,0l0.6,0.2l0.2,0.1l0.2,0.2l-0.2,0.1l-0.4,0.1l-0.2,0.1
	l-0.2-0.1l0,0.3l0,0.4l0,0.2l-0.2,0l-0.1,0l-0.1-0.1l0-0.1l-0.1-0.1l-0.1-0.1l-0.1,0l-0.1,0l-0.1,0.1l-0.2,0.2l-0.3,0.3l-0.3,0.1
	l-0.1,0l-0.1,0l-0.2-0.2l-0.1,0l-0.2,0.1l-0.5,0.3l-0.2,0.1l-0.3,0.4l-0.1,0.1l-0.4,0.2l-0.8,0.5l-0.4,0l-0.4-0.2l-0.2-0.2l-0.1-0.1
	l-0.1,0.1l0,0.2l0.1,0.1l0.1,0.1l0.1,0.1l-0.1,0.2l-0.1,0.1l-2.5,1.2l-0.8,0.5l-0.3,0.3l-0.1,0.1l0,0.1l0,0.1l0,0.1l0,0.2l0,0.1
	l-0.2,0.1l-0.1,0l-0.2-0.1l-0.1,0l-0.2,0l-0.1,0.1l-0.1,0.1l-0.1,0.1l-0.2,0.1l-0.2,0.1l-0.2,0.1l-0.3,0l-0.2,0.1l-1.3,1l-0.3,0.4
	l-0.2,0.4l0,0.2l0.3,0.9l0.2,0l0.4,0.2l0.2,0.1h0.8l0.2-0.1l0.4-0.4l0.2-0.1l0.2,0l1.7,0.1l0.5,0.2l0.4,0.3l0.7,0.6l0.1,0.1l0.2,0.1
	l0.1,0.1l0.1,0.2l0.1,0.1l0.3,0.2l0.4,0.5l0.2,0.2l0.5,0.1l0.2,0.1l0.1,0.2l0.1,0.2l0.3-0.1l0.4-0.2l0.4-0.2l0.5-0.1l0.2,0.1
	l0.6,0.6l0.8,0.5l0.3,0.4l0.2,0.6l0,0.4l0,0.1l0.2,0.4l0,0.1l0,0.3l0.1,0.6v0.4l0,0.3l-0.1,0.3l-0.1,0.2l-0.4,0.2l-0.2,0.2l-0.1,0.3
	l-0.1,0.3l0,0.1l0,0.1l-0.1,0.1l0.1,0.2l0.1,0.2l0.1,0.4l0.1,0.3l0,0.2l0,0.3l-0.1,0.2l-0.1,0.2l-0.1,0.2l0,0.2l0.1,0.1l0.4,0.1
	l0.2,0.1l-0.2,0.1l-0.6,0l-0.2,0.1l-0.1,0.1l-0.1,0l-0.2,0l-0.1,0l-0.3,0.2l-0.1,0l-0.3,0.1l0,0l0,0.2l0.1,0.2l1.2,0.8l0.1,0.2
	l0.2,0.2l0.2,0l0.2-0.1l0.2,0l0.1,0.1l0.3,0.4l0.1,0.1l0.1,0.3l0.2,0.1l0.8,0.4l0.2,0.1l0.7,0l0.1,0l0.2-0.1h0.1l0.7,0.3l0.3,0
	l0.2,0l1.2-0.6l0.3,0l0.2-0.1l0.4-0.3l0.1-0.1l0.2-0.3l0.1-0.2l0.1-0.2l0.5-0.1l0.1-0.1l0.2-0.4l0-0.1v-0.1l0.1-0.1l0,0l0.1,0h0.2
	l0.3,0l0.1,0l0.1-0.2l0.4-1.1l0.4-0.7l0.1-0.1l0.1-0.1l0.4-0.6h0l0,0v0l0,0l0.3-0.3l0.4-0.2l0.9-0.2l0.4-0.2l0.8-0.5l0.4-0.2
	l0.8,0.1l0.2-0.1l0.2-0.1l0.4,0.1l0.2,0l0.1-0.1l0.1-0.1l0.1-0.1l0.1-0.1l0.1,0l0.4,0l0.2,0.1l0.1,0.2l0.1,0.2l0.1,0.2l0.5,0.1
	l0.3-0.5l0.2-0.7l0.3-0.5l0.2-0.1l0.5-0.1l0.2-0.2l0.3-0.5l0.2-0.1l0.3,0.2l0.1-0.1l0.1-0.1l0-0.1l0.5,0.4l-0.1-0.5l0-0.2l0.1-0.2
	l0.2-0.1l0.4,0l0.2-0.1v-0.1l-0.3-0.1l-0.1-0.1l0-0.2l0-0.1l0.1-0.1l0-0.2l0.1-0.1l0.6-0.5l0.4-0.2l0.5-0.1h0.5l0.5,0.1l0.8,0.3
	l0.7,0.5l0.1,0.1l0.3,0.4l0.1,0.2l0.1,0.3l0.2,0.1l0.8-0.1l0.9,0.1l0.2-0.2l0.2-0.4l0.3-0.3l0.3,0.2v-0.1l0.6,0.4l1,0.2l0.2-0.1
	l0-0.1l0.1-0.3l0-0.1l0.1-0.1l0.1,0l1,0l0.8-0.3l0.2-0.1l0-0.2l-0.1-0.2l-0.3-0.3l-0.1-0.3v-0.3l0.1-0.9l0.1-0.3l0.1-0.3l0.1-0.2
	l0.1,0l0.3,0l0.1-0.1l0.1-0.1l0-0.1l-0.1-0.1l0-0.1l0.1-0.3l0.2-0.2l0.2-0.1l0.3,0l0.3,0.2l0.1,0h0.1l0.4-0.1l0.1-0.2l-0.1-0.4
	l-0.2-0.5l-0.2-0.2l-0.2-0.1l-0.2,0l-0.2,0.2l-0.2,0.1l-0.2-0.2l-0.3-0.4l-0.2,0l-0.7,0.2l-0.2-0.1l-0.3-0.2l-0.2,0l-0.1,0l-0.1,0.1
	l-0.1,0.1h-0.1l0.1-0.3l-0.1-0.2l-0.2-0.1l-0.2,0.2l-0.1,0.1l-1.3,0l-0.2,0.1l-0.2,0.2l-0.3,0.2l0,0.1l-0.2,0.5l-0.3,0.4l-0.4,0.1
	l-0.4-0.2l-0.8-0.5l-0.2-0.2l-0.1-0.2l0.1-0.3l0.1-0.3l0-0.2l-0.3,0l-0.2,0.1l-0.2,0.2l-0.1,0.3l0,0.3l0,0.1l-0.2,0.2l-0.1,0.1
	l-0.2,0l-0.1,0.1l0,0.1l0,0.2l-0.3,0.3l-0.2,0.2l-2,0.5l-0.4,0l-1.6-1.2l-3.2-4.7l-1-1.9l-0.6-1.6l-0.1-0.2l-0.1-0.2l-0.1-0.2
	l-0.4-1.9l-0.1-0.3l-0.1-0.2l-0.1-1l-0.1-0.3l0-0.1l0-0.2l0.1-0.2l0.2-0.3l0-0.1l0.5-0.2l0-0.2l0-0.2l0.1-0.1l0.1-0.1l0,0.1l0,0.1
	l0.1,0.1l0.1,0h0.1l1-0.3l0.5-0.3l0.4-0.4l0.7-1l0.4-0.4l0.1-0.2l0.1-0.3l0-0.1l-0.1-0.1l0-0.2l-0.1-0.2l-0.2-0.3l-0.1-0.3l0.2-0.3
	l0,0.3l0.1,0.3l0.1,0.2l0.2,0.1l0.1,0.1l0.1,0.1l0.1,0l0.2,0l0.1,0l-0.2,0.6l-0.1,0.4l0.1,0.4l0.3,0.2l0.2,0l0.2-0.2l0.2-0.2l0,0.4
	l-0.2,0.3l-0.4,0.4l-0.3,0.6l-0.1,0.3l-0.3,0.3l-0.3,0.6l-0.6,0.3l-1.2,0.3l0.1,0.2l0,0.1l-0.4,0.3l-0.3,0.4l0,0.2l0.2,0.1l0.4-0.2
	l0.3-0.2l0.4-0.1l0.3-0.2l0.4-0.2l0.3-0.3l0.3-0.4l0.6-1.2l0.2-0.3l1.1-1.7l0.2-0.2l0.4-0.3l0.2-0.2l0.3-0.5l0.2-0.2l0.2-0.2
	l1.3-0.7l0.4-0.3l0.9-1l0.3-0.3l0.6-0.4l0.8-0.5l0.3,0l1.5-0.3l0.8,0.1l0.4-0.1h0.2l0.2,0.1l0.1,0.1l0.1,0.1l0.1,0.2l0,0l0.1,0.1
	v0.1l0,0.1l0,0.1l0.1,0.2l0,0l0-0.1l0.1,0l0.1-0.1l0,0.1v0.2h0.1l0.1-0.5l0.2-0.4l0.8-0.8l0.3-0.3l0.4-0.2l0.6-0.1l0.5-0.3h0.7
	l0.1-0.1l0.1-0.1l0.1-0.1l0.2-0.1l0.3,0.1l0.2,0l0.2-0.1l0.2,0.1L164,96l0.2,0.1l0.4,0.5l0.1,0.1v0.3l-0.1,0.6l-0.2,0.4l-0.2-0.1
	H164V98l0.3,0.1l0.3-0.3l0.2-0.4l0.1-0.4l0.1-0.4l0.2-0.4l0.2-0.4l-0.1-0.4l0.4-0.1l0.6-0.6l0.4-0.1l0.1-0.1l0.4-0.3l0.1-0.1l0.2,0
	l1.3-0.5l0.5-0.4l0.2-0.1l0.4,0.1l0.4,0.2l0.3,0.3l0,0.4l0.3-0.1l0.2-0.3l0.3-0.6l1.2-1.7l0.7-0.7l0.4-0.1l1.4,0.3l0.5,0l1.2-0.4
	l1,0.2l0.1-0.1l0.3,0.1l0.4,0.2l0.1,0l0.3-0.2l0.1-0.1l0.1,0l0.4,0.3l0.3,0.1v0.3l-0.3,0.5l0.4-0.2l0.6-0.8l0.2-0.2l-0.2-0.4
	l-0.1-0.5l0.1-0.5l0.2-0.4l0.2-0.1l0.3-0.1l0.2-0.2l0.2-0.2l0-0.3l-0.1-0.2l-0.2-0.1l-0.2,0l-0.4,0.1l-0.2,0l-0.1-0.2l0-0.3l0.1-0.3
	l0.3-0.5l0.3-0.5l0.1-0.5l0-1.2l0.2-0.6l0.2-0.6l0.3-0.5l0.4-0.3l2.3-0.3l0.3-0.1l0.2-0.2l0.4-0.5l0.2-0.2l0.2,0l0.4,0.2l0.2,0
	l0.1-0.3l0.1-0.7l0.2-0.8l0.3-0.6l0.4-0.5l0.5-0.2l1.8,0.1l0.6,0.4l0.2,0.1l0.2,0l0.4-0.1l1.7-0.1l0.2,0l0.4,0.3l0.2,0.1l0.2,0
	l0.5-0.1l0.2,0.1l0.3,0.1l0.7-0.1l0.3,0l1.1,0.3l0.4-0.1l0.3-0.3l0.2-0.4l0.1-0.5l0-0.1l-0.1-0.2v-0.1l0-0.2l0.1-0.3l0-0.1l0-0.3
	l0-0.2l-0.2-0.4l-0.1-0.2l-0.1-0.1l0-0.1l0.1-0.2l0.1-0.1l0.6-0.1l0.1,0l0,0l0-0.2l-0.2-0.5l0-0.4l0.1-0.3l0.6-1l0.2-0.3l0.5-0.4
	l0.2-0.2l0.1-0.3l0-0.3L200,71l-0.2-0.1l-0.6,0.2l-0.2,0l-0.8-0.5l0.8-0.6l0.2-0.3l0.3-0.3l-0.1-0.1l-0.1-0.2l-0.1-0.4l-0.3-0.8
	l-0.1-0.1l-0.1-0.1l0-0.3l0.1,0l0.1,0l0.1,0l0-0.1l0-0.1l0-0.1l0-0.1l0-0.1l-0.1-0.4l-0.2-0.3l-0.3-0.2l-1.3-0.2l-0.2,0.1l-0.4,0
	l0.1-0.4l0.7-2.3l0.1-0.1l0.3-0.1l0.1-0.2l0.1-0.2l0.1-0.2l0.2-0.3l0.2-0.1l0.3,0l1.2,0.5l0.4-0.1l0.5-0.4l0.2-0.3l0.2-0.3l0-0.3
	l-0.2-0.3l-0.3,0l-0.2,0.2l-0.2,0.3l-0.2,0.1l-0.1-0.1l-0.2-0.3l-0.1-0.1l-0.1,0l-0.4,0.1l-0.9-0.2l-0.3-0.1l-0.1-0.2l-0.1-0.2
	l-0.2-0.3l-0.2-0.2l-0.2-0.2l-0.2-0.2l0.1-0.9l0.2-0.1l0.6,0l0.9-0.3h0.3l0.3,0.1l0.2,0l0.1-0.1l0.1-0.2l0-0.5l0.1-0.2l0.2-0.4
	l0.3-0.3l0.7-0.4l0.2-0.2l0.4-0.6l0.2-0.2l0.3-0.2l0.1-0.2l0-0.6l0.2-0.6l0-0.3L201.8,53.1z M94.8,106.2l0,0.2l-0.1,0.1l-0.1,0.1
	l0,0.1l-0.1,0.1l-0.3,0.3l-0.1,0.1L94,107l-0.1-0.1l-0.6-1.3l-0.3-0.4l-0.4-0.3l-0.8-0.3l-0.2,0l-0.2-0.1l-0.7-0.8l-0.1-0.2l0-0.1
	l0-0.2l0-0.1l0-0.1l0-0.1l0.1-0.3l0.9-0.4h0.1l0.1,0l0.1,0.1l0.1,0.1l-0.1,0.3l0.1,0.3l0.2,0.3l0.2,0.2l0.2,0l0.1-0.3l0-0.4l0.1-0.4
	l0.1,0.2l0.1,0.3l0,0.3v0.3l0.1,0.2l0.7,0.4l0.1,0.1l0.1,0.1l0,0.1l0,0.2l0,0.1l0,0.1l0,0.1l0,0.1l0.1,0.2l0.7,0.6l0.1,0.1l0.1,0.1
	l0,0.1V106.2z M142.7,109.5L142.7,109.5l0.2,0.2l0,0l0.1,0l0,0.1l-0.1,0.1h0l0,0l-0.1,0.1h0v0.1l0,0.1l0,0.1l0,0l-0.2,0.9l0,0.1
	l0,0.1l0.1,0l0.1,0l0.1-0.1l0.1-0.1l0.1-0.1l0-0.1l0-0.1l0.1-0.1l0.1,0l0.1,0.1l0.1,0.1l0.1,0.1l0.1,0.3l0.1,0.6l0.1,0.3l0.4,0.7
	l0,0.1l0,0.1l0.2,0.3l0,0.2l0.1,0.1l0.1,0l0.1,0.1l0.1,0.2l0.2,0.5l0.3,0.4l0.1,0.2l0.5,0.5l2.3,3.4l0.1,0.1l0.1,0l0.1,0.1l0.1,0.1
	l0.1,0.1l0.1,0.1l0.2,0.1l0.2,0l0.2,0.1l0.2,0.2l-0.2,0.3l-0.2,0.1l-0.2,0l-0.2-0.1l-0.2-0.2l-0.1-0.2l-0.1-0.1l-1.3-0.5l-0.2-0.1
	l-0.1-0.1l-0.2-0.1l-0.2-0.1h-0.2l-0.2,0.1l-0.1,0.1h-0.1l-0.6-0.5l-0.1-0.2l-0.3-0.6l-0.2-0.2v-0.1l0.1-0.1l0.4-0.1l0.1-0.1
	l0.1-0.1l0.1-0.1l0.1-0.1l0-0.2l0-0.1l-0.1,0l-0.2-1.1l-0.1-0.2l-0.3-0.3l-0.1-0.2l0-0.2l-0.1-0.2l-0.1-0.1l-0.1-0.1l-0.3-0.7
	l-0.1-0.1l-0.6,0.1l-0.2,0l-0.1-0.1l-0.1-0.3l-0.1-0.1l-0.1,0l-0.3-0.1l0.1-0.2l0.2-0.2l0.1-0.1v-0.1l-0.2,0l-0.4,0.3l-0.2,0
	l-0.4-0.1l-0.2,0l-0.2,0.1l0.2-0.3l0.3-0.3l0.1-0.3l-0.2-0.4l-0.3-0.1l-0.3,0.1l-0.3,0.2l-0.3,0.1l0.1-0.2l0.2-0.3l0-0.2l0-0.2
	l0.1-0.1l0.1-0.1l0.2,0l0,0l0.3-0.1l0.1,0l0.1-0.1l0-0.2l0-0.2l-0.1-0.2l-0.3,0.4l-0.2,0.1l-0.5,0.1l-0.2,0.1l-1.1,1l-0.4,0.2
	l-0.5,0.1v-0.1l0.3-0.2l0.1-0.1l0.1-0.1l0.1-0.2l0.1-0.2l0.1-0.1l0.1-0.1l0.1-0.4l0.1-0.1l0.2,0l0.1-0.1l0.1-0.1l0.1-0.1l0.1-0.1
	l0.2-0.3l0-0.1l0.1-0.3v-0.1l0-0.1l0-0.2l-0.1-0.1l-0.8-0.3v0.1l0.2,0.2l0.1,0.2l0,0.2l-0.1,0.2l-0.2,0l-0.2-0.1l-0.1,0.1l0,0.1
	l-0.1,0.2l-0.2,0.3l-0.1,0l-0.1-0.2l-0.2-0.4l0.2-0.3l0.1-0.1l-0.2-0.1l-0.2,0.1l-0.2,0.2l-0.1,0.3l0,0.4l-0.1,0.2l-0.1-0.1v-0.4
	H138l0,0.1l0,0.1l-0.1,0l-0.1,0l0-0.1l0-0.1l0-0.1l0-0.1l-0.3,0.3l0-0.2l0.1-0.3l0-0.2l0.1-0.1l0.3-0.1l0.1-0.1l0-0.3l-0.2-0.2
	l-0.2-0.1l-0.2-0.2l0.1,0l0.2-0.1l-0.3-0.4l-0.2-0.2l-0.2,0l0,0.1l0,0.3l-0.1,0.1l-0.1,0l-0.1,0l-0.1-0.1l-0.1-0.1l0-0.2l0-0.3
	l0-0.1l-0.4,0.6l-0.1,0l-0.1-0.2l0.1-0.2l-0.2-0.1l-0.5-0.2l-0.1,0.1l-0.1-0.1l-0.1-0.1l-0.1-0.1l-0.1,0l0,0l-0.1-0.1l-0.1,0l0,0
	l0,0.1l0,0.1l0,0l0.1,0.1l0.6,0.5l0.1,0.1l0.1,0.2l0,0.3l-0.1,0.3l-0.2,0.1l-0.2,0l-0.1,0.1L135,109l-0.1-0.2l-0.1-0.3l0.2,0.1h0.2
	l0.1-0.1l0.1-0.1v-0.1l-0.6-0.6l-0.4-0.2l-0.5-0.7l-0.2-0.2l-0.2-0.1l-0.5,0l-0.1,0l0,0.1l0.2,0.2l0.1,0l0.1,0l0.1,0l0.1,0.2
	l-0.2,0.1v0.1l0.1,0.2l0.1,0.2l-0.1,0.2l-0.2,0l-0.2-0.1l-0.1-0.1l-0.1-0.1l0-0.2l-0.1-0.2l-0.1-0.1l-0.1,0.1l-0.1,0.1l-0.1,0.1H132
	l0.1-0.1l-0.1-0.1l0,0v-0.1l0.2-0.1l-0.1-0.3l-0.4-0.5l0.1-0.1l0-0.2v-0.4l-0.1-0.1l-0.5-0.2v0.5l-0.1,0.3l-0.1,0.1l-0.5-0.3
	l-0.1-0.1l-0.5-0.9l-0.1-0.1l-0.1-0.1v-0.1h0.3l0.2,0.1l0.2-0.1l0.1-0.2l0.2-0.2l0.2,0l0.2,0l0.2,0.1l0.1,0.2l0.1,0.1l0.1,0l0.2,0
	l0.1,0l0.2-0.1h0.1l0.6,0.3l0.2,0l0.1,0.2l0.3,0.7l0.2,0.2l0.1,0l0,0.1l0,0.1l0,0l0.1,0l0,0l0,0l0.1-0.1l0.1-0.1l0.1,0l0.1,0v0
	l0,0.1l0,0.1l0,0.1l0,0l0.1,0h0.1l0.2,0.1h0.1l0-0.1l-0.1-0.2l-0.1-0.4l0,0l-0.1,0l-0.1-0.1l-0.2-0.1v-0.1l0.3,0.1l0.1,0l0-0.2
	l0.1-0.1l0.1,0l0.1,0.1l0.1,0.2v0.1l-0.1,0.3l0.1,0.2l0.1,0.1l0-0.1l0.4-0.5l-0.4-0.4l-0.2-0.2l-0.1-0.2l0-0.4l0-0.3l0.1-0.1
	l0.2,0.1l0.3,0.3l0.3,0.4l0.6,1.2l0,0.1l0,0.2v0.4l0,0.2l0.1,0.1l0.1-0.2l0.1-0.4l0.1-0.4v-0.2l-0.1-0.1l-0.3,0l-0.1-0.1l0-0.1
	l0.1-0.1l0.1-0.1l0-0.1l0.1,0l0.7,0.4l0.8,0.6l0.4,0.1l0.4-0.3l0.1-0.3l0.1-0.1l0.1-0.1l0.1,0.1l0.1,0.1l0.1,0.2l0.1,0.2v0.4l0,0.2
	l-0.1,0.2l0,0.2l-0.1,0.2l-0.1-0.2l-0.1-0.3l0-0.2l-0.1,0.1l-0.1,0.3l-0.1,0.2l0-0.3l0-0.1l0-0.1l0-0.1l-0.1,0l-0.4,0.3l-0.1,0.3
	v0.3l0.1,0.3l0.2,0.2l-0.1,0.2l-0.1,0l-0.1-0.1l-0.2,0l-0.1,0.1l-0.1,0.2l0,0.2l0.1,0.1h0.3l0.3,0l0.1,0.2l-0.1,0.4l0.2,0.1l0.4-0.4
	l0.5,0.2l0.2-0.2l0.6-1.2l0-0.2l0-0.3l-0.1-0.3l-0.1-0.3l0-0.3l0.3-0.4l0.5,0.1l0.5,0.3l0.3,0.3l0.1,0.2l0.1,0.3l0,0.3l-0.2,0.1
	l-0.1-0.1l-0.2-0.2l-0.1-0.1l-0.3,0l-0.4,0.1l-0.1,0.1l-0.1,0.1l0.2,0.1l0.2,0.2l0.1,0.3l0.1,0.2l0.3,0.3l0.1,0.1l0.1-0.1l0-0.2
	l0.1-0.2l0.2,0l0.1,0.2l0.1,0.3l0.1,0.4l0,0.3v0.4l0,0.2L142.7,109.5z"/>
</svg>
